<svg xmlns:xlink="http://www.w3.org/1999/xlink" xmlns="http://www.w3.org/2000/svg" width="1300" height="80" viewBox="0 0 1300 80" fill="none" id="svg-2118978208_30335">
<g clip-path="url(#svg-2118978208_30335_clip0_111141_8704)" fill="none">
<path fill-rule="evenodd" clip-rule="evenodd" d="M25.5557 31.6853C23.9112 30.5865 21.9778 30 20 30V20C23.9556 20 27.8224 21.173 31.1114 23.3706C34.4004 25.5682 36.9638 28.6918 38.4776 32.3463C39.9913 36.0008 40.3874 40.0222 39.6157 43.9018C38.844 47.7814 36.9392 51.3451 34.1421 54.1421C31.3451 56.9392 27.7814 58.844 23.9018 59.6157C20.0222 60.3874 16.0008 59.9913 12.3463 58.4776C8.6918 56.9638 5.56823 54.4004 3.37061 51.1114C1.17298 47.8224 0 43.9556 0 40H10C10 41.9778 10.5865 43.9112 11.6853 45.5557C12.7841 47.2002 14.3459 48.4819 16.1732 49.2388C18.0004 49.9957 20.0111 50.1937 21.9509 49.8078C23.8907 49.422 25.6725 48.4696 27.0711 47.0711C28.4696 45.6725 29.422 43.8907 29.8078 41.9509C30.1937 40.0111 29.9957 38.0004 29.2388 36.1732C28.4819 34.3459 27.2002 32.7841 25.5557 31.6853Z" fill="#5F5F5F"></path>
<path fill-rule="evenodd" clip-rule="evenodd" d="M9.99999 20C9.99999 21.3132 9.74134 22.6136 9.23879 23.8268C8.73624 25.0401 7.99965 26.1425 7.07106 27.0711C6.14248 27.9997 5.04009 28.7363 3.82683 29.2388C2.61357 29.7413 1.31321 30 4.3711e-07 30L0 40C2.62643 40 5.22715 39.4827 7.65367 38.4776C10.0802 37.4725 12.285 35.9993 14.1421 34.1421C15.9993 32.285 17.4725 30.0802 18.4776 27.6537C19.4827 25.2272 20 22.6264 20 20L9.99999 20Z" fill="#5F5F5F"></path>
<path d="M125.62 34.4521H120.768V49.8644H125.62V34.4521Z" fill="#5F5F5F"></path>
<path d="M121.306 31.5666C121.813 32.074 122.447 32.3277 123.208 32.3277C123.969 32.3277 124.593 32.074 125.079 31.5666C125.566 31.0381 125.809 30.4038 125.809 29.6639C125.809 28.9028 125.566 28.2685 125.079 27.7611C124.593 27.2537 123.969 27 123.208 27C122.447 27 121.813 27.2537 121.306 27.7611C120.819 28.2685 120.576 28.9028 120.576 29.6639C120.576 30.4038 120.819 31.0381 121.306 31.5666Z" fill="#5F5F5F"></path>
<path d="M51.1562 49.8647V27.4756H56.1351V45.4884H66.0612V49.8647H51.1562Z" fill="#5F5F5F"></path>
<path fill-rule="evenodd" clip-rule="evenodd" d="M75.0273 50.2135C73.4417 50.2135 72.0041 49.8647 70.7144 49.167C69.4459 48.4482 68.4417 47.4757 67.7017 46.2494C66.9618 45.0232 66.5918 43.649 66.5918 42.1268C66.5918 40.6046 66.9618 39.241 67.7017 38.0359C68.4417 36.8308 69.4459 35.8794 70.7144 35.1818C71.9829 34.4629 73.4206 34.1035 75.0273 34.1035C76.6341 34.1035 78.0717 34.4524 79.3402 35.15C80.6087 35.8477 81.613 36.8097 82.3529 38.0359C83.0929 39.241 83.4629 40.6046 83.4629 42.1268C83.4629 43.649 83.0929 45.0232 82.3529 46.2494C81.613 47.4757 80.6087 48.4482 79.3402 49.167C78.0717 49.8647 76.6341 50.2135 75.0273 50.2135ZM75.0273 45.8055C75.725 45.8055 76.3381 45.6575 76.8667 45.3615C77.3952 45.0444 77.7969 44.611 78.0717 44.0613C78.3677 43.4905 78.5157 42.8456 78.5157 42.1268C78.5157 41.408 78.3677 40.7843 78.0717 40.2558C77.7757 39.7061 77.3635 39.2833 76.8349 38.9873C76.3275 38.6701 75.725 38.5116 75.0273 38.5116C74.3508 38.5116 73.7483 38.6701 73.2197 38.9873C72.6912 39.2833 72.2789 39.7061 71.9829 40.2558C71.6869 40.8055 71.539 41.4397 71.539 42.1585C71.539 42.8562 71.6869 43.4905 71.9829 44.0613C72.2789 44.611 72.6912 45.0444 73.2197 45.3615C73.7483 45.6575 74.3508 45.8055 75.0273 45.8055Z" fill="#5F5F5F"></path>
<path fill-rule="evenodd" clip-rule="evenodd" d="M87.3066 55.8906C88.5962 56.4825 90.0867 56.7785 91.7781 56.7785C93.4271 56.7785 94.8965 56.4508 96.1861 55.7954C97.4758 55.14 98.4905 54.231 99.2305 53.0682C99.9704 51.9054 100.341 50.5312 100.341 48.9455V34.4529H95.5835V35.4884C95.2297 35.1906 94.8279 34.9406 94.3785 34.7383C93.5539 34.3366 92.6131 34.1357 91.5561 34.1357C90.1396 34.1357 88.8816 34.474 87.7823 35.1505C86.6828 35.8059 85.8161 36.715 85.1818 37.8778C84.5475 39.0195 84.2305 40.3091 84.2305 41.7468C84.2305 43.1633 84.5475 44.4529 85.1818 45.6157C85.8161 46.7785 86.6828 47.6982 87.7823 48.3747C88.8816 49.0512 90.1396 49.3895 91.5561 49.3895C92.592 49.3895 93.5328 49.1887 94.3785 48.787C94.7881 48.5924 95.1581 48.3631 95.4884 48.099V49.0724C95.4884 50.1506 95.1396 50.9857 94.4419 51.5777C93.7654 52.1697 92.8246 52.4656 91.6195 52.4656C90.647 52.4656 89.8119 52.2965 89.1142 51.9582C88.4377 51.62 87.8245 51.1231 87.2748 50.4677L84.2939 53.4487C85.0338 54.5058 86.0381 55.3198 87.3066 55.8906ZM94.2199 44.6326C93.7336 44.9286 93.1523 45.0766 92.4757 45.0766C91.7992 45.0766 91.2072 44.9286 90.6998 44.6326C90.2135 44.3366 89.833 43.9349 89.5582 43.4275C89.2833 42.899 89.1459 42.3387 89.1459 41.7468C89.1459 41.1125 89.2833 40.5417 89.5582 40.0343C89.833 39.5269 90.2241 39.1252 90.7315 38.8292C91.2389 38.5332 91.8203 38.3852 92.4757 38.3852C93.1523 38.3852 93.7336 38.5332 94.2199 38.8292C94.7273 39.1252 95.1078 39.5269 95.3616 40.0343C95.6364 40.5417 95.7738 41.1125 95.7738 41.7468C95.7738 42.381 95.6364 42.9518 95.3616 43.4592C95.1078 43.9455 94.7273 44.3366 94.2199 44.6326Z" fill="#5F5F5F"></path>
<path fill-rule="evenodd" clip-rule="evenodd" d="M110.549 50.2135C108.963 50.2135 107.525 49.8647 106.236 49.167C104.967 48.4482 103.963 47.4757 103.223 46.2494C102.483 45.0232 102.113 43.649 102.113 42.1268C102.113 40.6046 102.483 39.241 103.223 38.0359C103.963 36.8308 104.967 35.8794 106.236 35.1818C107.504 34.4629 108.942 34.1035 110.549 34.1035C112.155 34.1035 113.593 34.4524 114.861 35.15C116.13 35.8477 117.134 36.8097 117.874 38.0359C118.614 39.241 118.984 40.6046 118.984 42.1268C118.984 43.649 118.614 45.0232 117.874 46.2494C117.134 47.4757 116.13 48.4482 114.861 49.167C113.593 49.8647 112.155 50.2135 110.549 50.2135ZM110.549 45.8055C111.246 45.8055 111.859 45.6575 112.388 45.3615C112.916 45.0444 113.318 44.611 113.593 44.0613C113.889 43.4905 114.037 42.8456 114.037 42.1268C114.037 41.408 113.889 40.7843 113.593 40.2558C113.297 39.7061 112.885 39.2833 112.356 38.9873C111.849 38.6701 111.246 38.5116 110.549 38.5116C109.872 38.5116 109.269 38.6701 108.741 38.9873C108.212 39.2833 107.8 39.7061 107.504 40.2558C107.208 40.8055 107.06 41.4397 107.06 42.1585C107.06 42.8562 107.208 43.4905 107.504 44.0613C107.8 44.611 108.212 45.0444 108.741 45.3615C109.269 45.6575 109.872 45.8055 110.549 45.8055Z" fill="#5F5F5F"></path>
<path fill-rule="evenodd" clip-rule="evenodd" d="M137.281 50.1823C136.246 50.1823 135.294 49.9815 134.427 49.5798C133.971 49.3684 133.559 49.116 133.191 48.8226V56.3663H128.402V34.4529H133.254V35.5166C133.606 35.2287 133.997 34.9798 134.427 34.77C135.294 34.3471 136.246 34.1357 137.281 34.1357C138.74 34.1357 140.03 34.4846 141.15 35.1823C142.292 35.8799 143.18 36.8313 143.814 38.0364C144.47 39.2415 144.797 40.6157 144.797 42.159C144.797 43.7024 144.47 45.0766 143.814 46.2817C143.18 47.4868 142.292 48.4381 141.15 49.1358C140.03 49.8335 138.74 50.1823 137.281 50.1823ZM136.394 45.806C137.091 45.806 137.694 45.6474 138.201 45.3303C138.73 45.0132 139.142 44.5797 139.438 44.0301C139.734 43.4804 139.882 42.8567 139.882 42.159C139.882 41.4402 139.734 40.806 139.438 40.2563C139.142 39.7066 138.73 39.2838 138.201 38.9878C137.694 38.6706 137.102 38.5121 136.425 38.5121C135.749 38.5121 135.146 38.6706 134.618 38.9878C134.11 39.2838 133.709 39.7066 133.413 40.2563C133.117 40.806 132.969 41.4402 132.969 42.159C132.969 42.8567 133.106 43.4804 133.381 44.0301C133.677 44.5797 134.089 45.0132 134.618 45.3303C135.146 45.6474 135.738 45.806 136.394 45.806Z" fill="#5F5F5F"></path>
<path d="M149.546 49.8968C150.434 50.1294 151.332 50.2456 152.241 50.2456C154.165 50.2456 155.687 49.8017 156.808 48.9137C157.949 48.0258 158.52 46.8313 158.52 45.3302C158.52 44.3577 158.341 43.5754 157.981 42.9835C157.622 42.3704 157.157 41.8841 156.586 41.5247C156.015 41.1653 155.412 40.8798 154.778 40.6684C154.144 40.457 153.541 40.2773 152.971 40.1293C152.4 39.9813 151.935 39.8122 151.575 39.6219C151.216 39.4316 151.036 39.1779 151.036 38.8608C151.036 38.5648 151.174 38.3428 151.448 38.1948C151.723 38.0257 152.135 37.9412 152.685 37.9412C153.256 37.9412 153.837 38.0574 154.429 38.29C155.042 38.5225 155.592 38.9243 156.078 39.4951L158.837 36.7044C158.14 35.8164 157.231 35.1504 156.11 34.7065C155.011 34.2414 153.806 34.0088 152.495 34.0088C151.248 34.0088 150.159 34.2202 149.229 34.643C148.298 35.0659 147.579 35.6473 147.072 36.3872C146.565 37.106 146.311 37.9623 146.311 38.956C146.311 39.8862 146.491 40.6579 146.85 41.271C147.209 41.8629 147.675 42.3281 148.245 42.6663C148.816 43.0046 149.419 43.2689 150.053 43.4591C150.687 43.6494 151.29 43.8291 151.861 43.9983C152.431 44.1463 152.897 44.326 153.256 44.5374C153.637 44.7277 153.827 45.0131 153.827 45.3936C153.827 45.6896 153.668 45.9221 153.351 46.0913C153.055 46.2604 152.622 46.345 152.051 46.345C151.226 46.345 150.465 46.197 149.768 45.901C149.07 45.5839 148.467 45.1505 147.96 44.6008L145.201 47.3915C145.73 47.9623 146.364 48.4698 147.104 48.9137C147.865 49.3365 148.679 49.6642 149.546 49.8968Z" fill="#5F5F5F"></path>
<path d="M167.367 50.2133C165.951 50.2133 164.693 49.9279 163.594 49.3571C162.515 48.7651 161.67 47.9617 161.057 46.9469C160.443 45.911 160.137 44.727 160.137 43.395V34.4521H164.989V43.3316C164.989 43.8602 165.073 44.3147 165.243 44.6952C165.433 45.0758 165.708 45.3718 166.067 45.5832C166.427 45.7946 166.86 45.9003 167.367 45.9003C168.086 45.9003 168.657 45.6783 169.08 45.2343C169.503 44.7692 169.714 44.135 169.714 43.3316V34.4521H174.566V43.3633C174.566 44.7164 174.26 45.911 173.646 46.9469C173.033 47.9617 172.188 48.7651 171.109 49.3571C170.031 49.9279 168.784 50.2133 167.367 50.2133Z" fill="#5F5F5F"></path>
<path d="M181.832 34.4529H176.98V49.8652H181.832V40.8588C181.832 40.3303 181.938 39.8863 182.149 39.5269C182.382 39.1675 182.689 38.8926 183.069 38.7024C183.45 38.4909 183.883 38.3852 184.369 38.3852C185.067 38.3852 185.648 38.6072 186.113 39.0512C186.6 39.474 186.843 40.0766 186.843 40.8588V49.8652H191.695V40.8588C191.695 40.3303 191.801 39.8863 192.012 39.5269C192.245 39.1675 192.551 38.8926 192.932 38.7024C193.312 38.4909 193.746 38.3852 194.232 38.3852C194.93 38.3852 195.511 38.6072 195.976 39.0512C196.462 39.474 196.705 40.0766 196.705 40.8588V49.8652H201.558V40.3197C201.558 39.0301 201.283 37.9307 200.733 37.0216C200.204 36.0913 199.475 35.3831 198.545 34.8969C197.636 34.3894 196.589 34.1357 195.405 34.1357C194.2 34.1357 193.111 34.4 192.139 34.9286C191.507 35.2653 190.955 35.6999 190.482 36.2323C190.041 35.6754 189.505 35.2197 188.872 34.8651C188.027 34.3789 187.065 34.1357 185.987 34.1357C184.845 34.1357 183.82 34.3789 182.911 34.8651C182.515 35.0674 182.156 35.3097 181.832 35.592V34.4529Z" fill="#5F5F5F"></path>
</g>
<g clip-path="url(#svg-2118978208_30335_clip1_111141_8704)" fill="none">
<path d="M347.57 48.6077H359.241V45.0955H351.718V31.8662H347.57V48.6077Z" fill="#5F5F5F"></path>
<path d="M366.156 46.2666C364.492 46.2666 363.625 44.8149 363.625 42.6374C363.625 40.4598 364.492 38.9847 366.156 38.9847C367.82 38.9847 368.71 40.4598 368.71 42.6374C368.71 44.8149 367.82 46.2666 366.156 46.2666ZM366.179 48.9827C370.046 48.9827 372.577 46.2432 372.577 42.6374C372.577 39.0315 370.046 36.292 366.179 36.292C362.336 36.292 359.758 39.0315 359.758 42.6374C359.758 46.2432 362.336 48.9827 366.179 48.9827Z" fill="#5F5F5F"></path>
<path d="M379.269 52.7525C381.05 52.7525 382.62 52.3544 383.675 51.4178C384.636 50.5515 385.268 49.2403 385.268 47.4373V36.6198H381.612V37.9076H381.566C380.863 36.9008 379.785 36.2686 378.191 36.2686C375.215 36.2686 373.152 38.7505 373.152 42.2627C373.152 45.9388 375.66 47.9525 378.355 47.9525C379.808 47.9525 380.722 47.3671 381.425 46.571H381.519V47.7651C381.519 49.2168 380.839 50.0598 379.222 50.0598C377.957 50.0598 377.324 49.5212 377.113 48.889H373.41C373.785 51.3944 375.965 52.7525 379.269 52.7525ZM379.246 45.1193C377.816 45.1193 376.879 43.9486 376.879 42.1456C376.879 40.3193 377.816 39.1486 379.246 39.1486C380.839 39.1486 381.683 40.5066 381.683 42.1222C381.683 43.8081 380.909 45.1193 379.246 45.1193Z" fill="#5F5F5F"></path>
<path d="M392.788 46.2666C391.125 46.2666 390.257 44.8149 390.257 42.6374C390.257 40.4598 391.125 38.9847 392.788 38.9847C394.452 38.9847 395.343 40.4598 395.343 42.6374C395.343 44.8149 394.452 46.2666 392.788 46.2666ZM392.812 48.9827C396.678 48.9827 399.209 46.2432 399.209 42.6374C399.209 39.0315 396.678 36.292 392.812 36.292C388.969 36.292 386.391 39.0315 386.391 42.6374C386.391 46.2432 388.969 48.9827 392.812 48.9827Z" fill="#5F5F5F"></path>
<path d="M400.324 48.6077H404.144V36.6194H400.324V48.6077ZM400.324 34.9569H404.144V31.8662H400.324V34.9569Z" fill="#5F5F5F"></path>
<path d="M405.801 52.5651H409.621V47.3671H409.668C410.418 48.3739 411.519 48.9827 413.066 48.9827C416.206 48.9827 418.292 46.5007 418.292 42.6139C418.292 39.0081 416.347 36.2686 413.159 36.2686C411.519 36.2686 410.347 36.9944 409.527 38.0715H409.457V36.6198H405.801V52.5651ZM412.081 46.0325C410.441 46.0325 409.504 44.6978 409.504 42.7544C409.504 40.811 410.347 39.3359 412.011 39.3359C413.652 39.3359 414.425 40.6939 414.425 42.7544C414.425 44.7915 413.534 46.0325 412.081 46.0325Z" fill="#5F5F5F"></path>
<path d="M424.511 48.9827C427.652 48.9827 429.972 47.6247 429.972 45.0022C429.972 41.9349 427.487 41.3964 425.378 41.0451C423.855 40.7642 422.496 40.6471 422.496 39.8042C422.496 39.0549 423.222 38.7037 424.16 38.7037C425.214 38.7037 425.941 39.0315 426.081 40.1086H429.597C429.409 37.7437 427.581 36.2686 424.183 36.2686C421.347 36.2686 419.004 37.5798 419.004 40.1086C419.004 42.9183 421.23 43.4803 423.316 43.8315C424.91 44.1125 426.363 44.2295 426.363 45.3066C426.363 46.0793 425.636 46.5008 424.488 46.5008C423.222 46.5008 422.425 45.9154 422.285 44.7212H418.676C418.793 47.3671 420.996 48.9827 424.511 48.9827Z" fill="#5F5F5F"></path>
<path d="M435.162 48.9596C436.826 48.9596 437.88 48.304 438.747 47.1333H438.818V48.6084H442.474V36.6201H438.654V43.3167C438.654 44.745 437.857 45.7284 436.544 45.7284C435.326 45.7284 434.74 45.0026 434.74 43.6913V36.6201H430.943V44.4874C430.943 47.1567 432.396 48.9596 435.162 48.9596Z" fill="#5F5F5F"></path>
<path d="M444.135 48.6081H447.955V41.8881C447.955 40.4598 448.658 39.4529 449.853 39.4529C451.001 39.4529 451.54 40.2022 451.54 41.49V48.6081H455.36V41.8881C455.36 40.4598 456.04 39.4529 457.259 39.4529C458.407 39.4529 458.946 40.2022 458.946 41.49V48.6081H462.766V40.811C462.766 38.1183 461.407 36.2686 458.688 36.2686C457.141 36.2686 455.852 36.9242 454.915 38.3759H454.868C454.259 37.0881 453.064 36.2686 451.493 36.2686C449.759 36.2686 448.611 37.0881 447.861 38.329H447.791V36.6198H444.135V48.6081Z" fill="#5F5F5F"></path>
<path fill-rule="evenodd" clip-rule="evenodd" d="M317.129 59.3398C327.915 59.3398 336.658 50.6039 336.658 39.8276C336.658 29.0513 327.915 20.3154 317.129 20.3154C306.343 20.3154 297.6 29.0513 297.6 39.8276C297.6 50.6039 306.343 59.3398 317.129 59.3398ZM320.143 35.3911C321.808 33.7278 321.808 31.0311 320.143 29.3678C318.479 27.7045 315.78 27.7045 314.115 29.3678C312.45 31.0311 312.45 33.7278 314.115 35.3911L317.129 38.4027L320.143 35.3911ZM321.569 42.8393C323.234 44.5026 325.933 44.5026 327.598 42.8393C329.263 41.176 329.263 38.4793 327.598 36.816C325.933 35.1528 323.234 35.1528 321.569 36.816L318.555 39.8277L321.569 42.8393ZM320.143 50.2875C321.808 48.6242 321.808 45.9275 320.143 44.2642L317.129 41.2526L314.115 44.2642C312.45 45.9275 312.45 48.6242 314.115 50.2875C315.78 51.9508 318.479 51.9508 320.143 50.2875ZM306.66 42.8393C304.995 41.176 304.995 38.4793 306.66 36.816C308.325 35.1528 311.024 35.1528 312.689 36.816L315.703 39.8277L312.689 42.8393C311.024 44.5026 308.325 44.5026 306.66 42.8393Z" fill="#5F5F5F"></path>
</g>
<g clip-path="url(#svg-2118978208_30335_clip2_111141_8704)" fill="none">
<path d="M607.105 48.2463H618.773V44.7341H611.252V31.5049H607.105V48.2463Z" fill="#5F5F5F"></path>
<path d="M625.685 45.9053C624.022 45.9053 623.155 44.4536 623.155 42.276C623.155 40.0985 624.022 38.6233 625.685 38.6233C627.348 38.6233 628.239 40.0985 628.239 42.276C628.239 44.4536 627.348 45.9053 625.685 45.9053ZM625.708 48.6214C629.574 48.6214 632.104 45.8819 632.104 42.276C632.104 38.6702 629.574 35.9307 625.708 35.9307C621.866 35.9307 619.289 38.6702 619.289 42.276C619.289 45.8819 621.866 48.6214 625.708 48.6214Z" fill="#5F5F5F"></path>
<path d="M638.795 52.3911C640.575 52.3911 642.145 51.9931 643.199 51.0565C644.16 50.1902 644.792 48.8789 644.792 47.076V36.2584H641.137V37.5463H641.091C640.388 36.5394 639.31 35.9072 637.717 35.9072C634.741 35.9072 632.68 38.3892 632.68 41.9014C632.68 45.5775 635.187 47.5911 637.881 47.5911C639.333 47.5911 640.247 47.0058 640.95 46.2097H641.044V47.4038C641.044 48.8555 640.364 49.6984 638.748 49.6984C637.483 49.6984 636.85 49.1599 636.639 48.5277H632.937C633.312 51.0331 635.491 52.3911 638.795 52.3911ZM638.771 44.758C637.342 44.758 636.405 43.5872 636.405 41.7843C636.405 39.958 637.342 38.7872 638.771 38.7872C640.364 38.7872 641.208 40.1453 641.208 41.7609C641.208 43.4467 640.435 44.758 638.771 44.758Z" fill="#5F5F5F"></path>
<path d="M652.308 45.9053C650.645 45.9053 649.778 44.4536 649.778 42.276C649.778 40.0985 650.645 38.6233 652.308 38.6233C653.972 38.6233 654.862 40.0985 654.862 42.276C654.862 44.4536 653.972 45.9053 652.308 45.9053ZM652.332 48.6214C656.197 48.6214 658.727 45.8819 658.727 42.276C658.727 38.6702 656.197 35.9307 652.332 35.9307C648.489 35.9307 645.912 38.6702 645.912 42.276C645.912 45.8819 648.489 48.6214 652.332 48.6214Z" fill="#5F5F5F"></path>
<path d="M659.844 48.2463H663.663V36.2581H659.844V48.2463ZM659.844 34.5956H663.663V31.5049H659.844V34.5956Z" fill="#5F5F5F"></path>
<path d="M665.318 52.2038H669.137V47.0058H669.184C669.934 48.0126 671.035 48.6214 672.581 48.6214C675.721 48.6214 677.806 46.1394 677.806 42.2526C677.806 38.6467 675.861 35.9072 672.675 35.9072C671.035 35.9072 669.863 36.6331 669.043 37.7102H668.973V36.2584H665.318V52.2038ZM671.597 45.6711C669.957 45.6711 669.02 44.3365 669.02 42.3931C669.02 40.4497 669.864 38.9745 671.527 38.9745C673.167 38.9745 673.94 40.3326 673.94 42.3931C673.94 44.4302 673.05 45.6711 671.597 45.6711Z" fill="#5F5F5F"></path>
<path d="M684.023 48.6214C687.163 48.6214 689.482 47.2633 689.482 44.6409C689.482 41.5736 686.999 41.035 684.89 40.6838C683.367 40.4028 682.008 40.2858 682.008 39.4428C682.008 38.6936 682.735 38.3423 683.672 38.3423C684.726 38.3423 685.452 38.6702 685.593 39.7472H689.107C688.92 37.3823 687.092 35.9072 683.695 35.9072C680.86 35.9072 678.517 37.2184 678.517 39.7472C678.517 42.557 680.743 43.1189 682.828 43.4702C684.421 43.7511 685.874 43.8682 685.874 44.9453C685.874 45.718 685.148 46.1394 684 46.1394C682.735 46.1394 681.938 45.5541 681.797 44.3599H678.189C678.307 47.0058 680.509 48.6214 684.023 48.6214Z" fill="#5F5F5F"></path>
<path d="M694.67 48.5973C696.334 48.5973 697.388 47.9417 698.255 46.771H698.325V48.2461H701.98V36.2578H698.161V42.9544C698.161 44.3827 697.365 45.3661 696.053 45.3661C694.834 45.3661 694.249 44.6403 694.249 43.329V36.2578H690.453V44.1251C690.453 46.7944 691.906 48.5973 694.67 48.5973Z" fill="#5F5F5F"></path>
<path d="M703.641 48.2467H707.459V41.5267C707.459 40.0984 708.162 39.0916 709.357 39.0916C710.505 39.0916 711.044 39.8409 711.044 41.1287V48.2467H714.863V41.5267C714.863 40.0984 715.542 39.0916 716.761 39.0916C717.909 39.0916 718.447 39.8409 718.447 41.1287V48.2467H722.266V40.4497C722.266 37.757 720.907 35.9072 718.19 35.9072C716.643 35.9072 715.355 36.5628 714.418 38.0145H714.371C713.762 36.7267 712.567 35.9072 710.997 35.9072C709.263 35.9072 708.115 36.7267 707.366 37.9677H707.295V36.2584H703.641V48.2467Z" fill="#5F5F5F"></path>
<path d="M583.806 21.9285L579.966 20.9004L576.731 32.9683L573.81 22.0733L569.97 23.1015L573.126 34.8727L565.265 27.0165L562.455 29.8254L571.077 38.4428L560.339 35.5673L559.311 39.4044L571.043 42.5462C570.909 41.9672 570.838 41.3639 570.838 40.744C570.838 36.3561 574.397 32.799 578.787 32.799C583.178 32.799 586.737 36.3561 586.737 40.744C586.737 41.3599 586.667 41.9595 586.534 42.5351L597.197 45.3904L598.226 41.5533L586.446 38.399L597.185 35.5233L596.156 31.6862L584.378 34.8404L592.238 26.9842L589.428 24.1752L580.925 32.673L583.806 21.9285Z" fill="#5F5F5F"></path>
<path d="M586.523 42.5801C586.193 43.9709 585.498 45.2204 584.545 46.2214L592.27 53.9415L595.08 51.1326L586.523 42.5801Z" fill="#5F5F5F"></path>
<path d="M584.466 46.3018C583.501 47.2868 582.282 48.022 580.914 48.4008L583.725 58.8847L587.564 57.8565L584.466 46.3018Z" fill="#5F5F5F"></path>
<path d="M580.772 48.4394C580.138 48.6024 579.473 48.6891 578.787 48.6891C578.053 48.6891 577.342 48.5896 576.667 48.4033L573.854 58.8968L577.693 59.9249L580.772 48.4394Z" fill="#5F5F5F"></path>
<path d="M576.53 48.3644C575.184 47.9668 573.986 47.2223 573.04 46.2344L565.297 53.9734L568.108 56.7824L576.53 48.3644Z" fill="#5F5F5F"></path>
<path d="M572.975 46.1656C572.046 45.1715 571.369 43.9387 571.047 42.5693L560.35 45.434L561.378 49.2711L572.975 46.1656Z" fill="#5F5F5F"></path>
</g>
<g clip-path="url(#svg-2118978208_30335_clip3_111141_8704)" fill="none">
<path d="M869.141 47.4514H880.811V43.9392H873.289V30.71H869.141V47.4514Z" fill="#5F5F5F"></path>
<path d="M887.726 45.1104C886.062 45.1104 885.195 43.6587 885.195 41.4811C885.195 39.3035 886.062 37.8284 887.726 37.8284C889.39 37.8284 890.28 39.3035 890.28 41.4811C890.28 43.6587 889.39 45.1104 887.726 45.1104ZM887.749 47.8265C891.616 47.8265 894.147 45.087 894.147 41.4811C894.147 37.8753 891.616 35.1357 887.749 35.1357C883.906 35.1357 881.328 37.8753 881.328 41.4811C881.328 45.087 883.906 47.8265 887.749 47.8265Z" fill="#5F5F5F"></path>
<path d="M900.839 51.5962C902.62 51.5962 904.191 51.1982 905.245 50.2616C906.206 49.3952 906.839 48.084 906.839 46.2811V35.4635H903.183V36.7513H903.136C902.433 35.7445 901.355 35.1123 899.761 35.1123C896.785 35.1123 894.723 37.5943 894.723 41.1065C894.723 44.7825 897.23 46.7962 899.925 46.7962C901.378 46.7962 902.292 46.2108 902.995 45.4147H903.089V46.6089C903.089 48.0606 902.409 48.9035 900.792 48.9035C899.527 48.9035 898.894 48.365 898.683 47.7328H894.98C895.355 50.2382 897.535 51.5962 900.839 51.5962ZM900.816 43.963C899.386 43.963 898.449 42.7923 898.449 40.9894C898.449 39.163 899.386 37.9923 900.816 37.9923C902.409 37.9923 903.253 39.3504 903.253 40.966C903.253 42.6518 902.48 43.963 900.816 43.963Z" fill="#5F5F5F"></path>
<path d="M914.355 45.1104C912.691 45.1104 911.824 43.6587 911.824 41.4811C911.824 39.3035 912.691 37.8284 914.355 37.8284C916.019 37.8284 916.909 39.3035 916.909 41.4811C916.909 43.6587 916.019 45.1104 914.355 45.1104ZM914.378 47.8265C918.245 47.8265 920.776 45.087 920.776 41.4811C920.776 37.8753 918.245 35.1357 914.378 35.1357C910.535 35.1357 907.957 37.8753 907.957 41.4811C907.957 45.087 910.535 47.8265 914.378 47.8265Z" fill="#5F5F5F"></path>
<path d="M921.893 47.4514H925.713V35.4631H921.893V47.4514ZM921.893 33.8007H925.713V30.71H921.893V33.8007Z" fill="#5F5F5F"></path>
<path d="M927.371 51.4089H931.191V46.2108H931.238C931.988 47.2177 933.089 47.8264 934.636 47.8264C937.776 47.8264 939.862 45.3445 939.862 41.4577C939.862 37.8518 937.917 35.1123 934.73 35.1123C933.089 35.1123 931.918 35.8382 931.097 36.9152H931.027V35.4635H927.371V51.4089ZM933.652 44.8762C932.011 44.8762 931.074 43.5416 931.074 41.5982C931.074 39.6547 931.918 38.1796 933.581 38.1796C935.222 38.1796 935.995 39.5377 935.995 41.5982C935.995 43.6352 935.105 44.8762 933.652 44.8762Z" fill="#5F5F5F"></path>
<path d="M946.081 47.8265C949.222 47.8265 951.542 46.4684 951.542 43.846C951.542 40.7786 949.058 40.2401 946.949 39.8889C945.425 39.6079 944.066 39.4908 944.066 38.6479C944.066 37.8986 944.793 37.5474 945.73 37.5474C946.785 37.5474 947.511 37.8752 947.652 38.9523H951.167C950.979 36.5874 949.152 35.1123 945.753 35.1123C942.918 35.1123 940.574 36.4235 940.574 38.9523C940.574 41.7621 942.801 42.324 944.886 42.6752C946.48 42.9562 947.933 43.0733 947.933 44.1504C947.933 44.923 947.206 45.3445 946.058 45.3445C944.793 45.3445 943.996 44.7591 943.855 43.565H940.246C940.363 46.2108 942.566 47.8265 946.081 47.8265Z" fill="#5F5F5F"></path>
<path d="M956.73 47.8034C958.394 47.8034 959.449 47.1478 960.316 45.977H960.386V47.4522H964.042V35.4639H960.222V42.1605C960.222 43.5887 959.425 44.5722 958.113 44.5722C956.894 44.5722 956.308 43.8463 956.308 42.5351V35.4639H952.512V43.3312C952.512 46.0005 953.965 47.8034 956.73 47.8034Z" fill="#5F5F5F"></path>
<path d="M965.703 47.4518H969.523V40.7318C969.523 39.3035 970.226 38.2967 971.421 38.2967C972.57 38.2967 973.109 39.046 973.109 40.3338V47.4518H976.929V40.7318C976.929 39.3035 977.608 38.2967 978.827 38.2967C979.975 38.2967 980.514 39.046 980.514 40.3338V47.4518H984.334V39.6547C984.334 36.9621 982.975 35.1123 980.256 35.1123C978.71 35.1123 977.421 35.7679 976.483 37.2196H976.436C975.827 35.9318 974.632 35.1123 973.062 35.1123C971.328 35.1123 970.179 35.9318 969.429 37.1728H969.359V35.4635H965.703V47.4518Z" fill="#5F5F5F"></path>
<path fill-rule="evenodd" clip-rule="evenodd" d="M838.697 59.1591C849.483 59.1591 858.227 50.4232 858.227 39.6469C858.227 28.8707 849.483 20.1348 838.697 20.1348C827.912 20.1348 819.168 28.8707 819.168 39.6469C819.168 50.4232 827.912 59.1591 838.697 59.1591ZM844.79 29.2244C845.086 28.1719 844.064 27.5495 843.131 28.2141L830.098 37.4904C829.085 38.2111 829.244 39.6469 830.337 39.6469H833.769V39.6204H840.457L835.008 41.5417L832.605 50.0696C832.308 51.1221 833.331 51.7444 834.264 51.0798L847.297 41.8035C848.31 41.0828 848.15 39.6469 847.058 39.6469H841.853L844.79 29.2244Z" fill="#5F5F5F"></path>
</g>
<g clip-path="url(#svg-2118978208_30335_clip4_111141_8704)" fill="none">
<path d="M1100 60C1111.05 60 1120 51.046 1120 40V26C1120 24.4087 1119.37 22.8826 1118.24 21.7574C1117.12 20.6321 1115.59 20 1114 20H1101V28.774C1101 30.776 1101.12 32.85 1102.17 34.554C1102.92 35.7752 1103.93 36.8204 1105.12 37.6188C1106.31 38.4171 1107.66 38.9499 1109.08 39.181L1109.46 39.243C1109.62 39.297 1109.75 39.399 1109.85 39.5347C1109.95 39.6704 1110 39.8331 1110 40C1110 40.1669 1109.95 40.3296 1109.85 40.4653C1109.75 40.601 1109.62 40.703 1109.46 40.757L1109.08 40.819C1107.01 41.1568 1105.1 42.1356 1103.62 43.6171C1102.13 45.0987 1101.16 47.0082 1100.82 49.076L1100.76 49.459C1100.7 49.6169 1100.6 49.754 1100.46 49.851C1100.33 49.9481 1100.17 50.0003 1100 50.0003C1099.83 50.0003 1099.67 49.9481 1099.53 49.851C1099.4 49.754 1099.3 49.6169 1099.24 49.459L1099.18 49.076C1098.95 47.6607 1098.42 46.3118 1097.62 45.1205C1096.82 43.9293 1095.77 42.9237 1094.55 42.172C1092.85 41.122 1090.78 41 1088.77 41H1080.02C1080.55 51.581 1089.29 60 1100 60Z" fill="#5F5F5F"></path>
<path d="M1080 39H1088.77C1090.78 39 1092.85 38.878 1094.55 37.828C1095.89 37.0073 1097.01 35.886 1097.83 34.554C1098.88 32.85 1099 30.776 1099 28.774V20H1086C1084.41 20 1082.88 20.6321 1081.76 21.7574C1080.63 22.8826 1080 24.4087 1080 26V39ZM1126.46 22C1126.46 22.5304 1126.24 23.0391 1125.87 23.4142C1125.49 23.7893 1124.99 24 1124.46 24C1123.92 24 1123.42 23.7893 1123.04 23.4142C1122.67 23.0391 1122.46 22.5304 1122.46 22C1122.46 21.4696 1122.67 20.9609 1123.04 20.5858C1123.42 20.2107 1123.92 20 1124.46 20C1124.99 20 1125.49 20.2107 1125.87 20.5858C1126.24 20.9609 1126.46 21.4696 1126.46 22ZM1291.71 32.104C1297.3 32.104 1300 36.009 1300 40.532V49.027H1294.15V41.54C1294.15 39.49 1293.4 37.798 1291.26 37.798C1289.11 37.798 1288.4 39.49 1288.4 41.54V49.026H1282.54V41.54C1282.54 39.49 1281.83 37.798 1279.68 37.798C1277.54 37.798 1276.79 39.49 1276.79 41.54V49.026H1270.94V40.531C1270.94 36.008 1273.64 32.103 1279.23 32.103C1282.29 32.103 1284.5 33.307 1285.5 35.292C1286.58 33.307 1288.92 32.102 1291.71 32.102V32.104ZM1260.43 43.82C1262.31 43.82 1263.12 42.095 1263.12 40.044V32.754H1268.98V40.76C1268.98 45.544 1266.18 49.515 1260.43 49.515C1254.67 49.515 1251.88 45.545 1251.88 40.76V32.754H1257.73V40.044C1257.73 42.094 1258.54 43.82 1260.43 43.82ZM1243.27 49.547C1239.6 49.547 1237.23 48.278 1235.83 45.805L1240.06 43.429C1240.64 44.47 1241.52 44.991 1242.98 44.991C1244.18 44.991 1244.74 44.568 1244.74 44.047C1244.74 42.062 1236.16 44.08 1236.16 37.767C1236.16 34.707 1238.76 32.234 1243.18 32.234C1247.04 32.234 1249.16 34.121 1250.1 35.944L1245.88 38.352C1245.52 37.376 1244.41 36.79 1243.31 36.79C1242.46 36.79 1242.01 37.148 1242.01 37.636C1242.01 39.654 1250.59 37.799 1250.59 43.917C1250.59 47.334 1247.24 49.547 1243.27 49.547ZM1222.83 56.512H1216.98V40.858C1216.98 35.878 1220.72 32.266 1225.92 32.266C1230.99 32.266 1234.86 36.139 1234.86 40.858C1234.86 46.065 1231.41 49.515 1226.25 49.515C1225.04 49.515 1223.84 49.157 1222.83 48.603V56.512ZM1225.92 44.015C1227.77 44.015 1229.01 42.583 1229.01 40.89C1229.01 39.166 1227.77 37.766 1225.92 37.766C1224.07 37.766 1222.83 39.166 1222.83 40.891C1222.83 42.583 1224.07 44.015 1225.92 44.015ZM1211.12 31.03C1209.2 31.03 1207.61 29.435 1207.61 27.515C1207.61 25.595 1209.2 24 1211.12 24C1213.04 24 1214.63 25.595 1214.63 27.515C1214.63 29.435 1213.04 31.03 1211.12 31.03ZM1208.2 32.754H1214.05V49.027H1208.2V32.754ZM1196.97 49.515C1191.9 49.515 1188.03 45.61 1188.03 40.858C1188.03 36.139 1191.9 32.234 1196.97 32.234C1202.04 32.234 1205.91 36.139 1205.91 40.858C1205.91 45.61 1202.04 49.515 1196.97 49.515ZM1196.97 44.015C1198.82 44.015 1200.06 42.583 1200.06 40.89C1200.06 39.166 1198.82 37.734 1196.97 37.734C1195.12 37.734 1193.88 39.166 1193.88 40.89C1193.88 42.583 1195.12 44.015 1196.97 44.015ZM1176.98 57C1172.95 57 1170.03 55.21 1168.53 52.02L1173.38 49.417C1173.89 50.524 1174.87 51.663 1176.89 51.663C1179 51.663 1180.4 50.328 1180.56 47.985C1179.78 48.669 1178.54 49.189 1176.69 49.189C1172.17 49.189 1168.53 45.707 1168.53 40.825C1168.53 36.107 1172.4 32.266 1177.47 32.266C1182.67 32.266 1186.41 35.879 1186.41 40.858V47.302C1186.41 53.16 1182.35 57 1176.98 57ZM1177.37 43.69C1179.13 43.69 1180.46 42.485 1180.46 40.695C1180.46 38.938 1179.13 37.766 1177.37 37.766C1175.65 37.766 1174.29 38.938 1174.29 40.696C1174.29 42.486 1175.65 43.689 1177.37 43.689V43.69ZM1158.61 49.515C1153.54 49.515 1149.67 45.61 1149.67 40.858C1149.67 36.139 1153.54 32.234 1158.61 32.234C1163.68 32.234 1167.55 36.139 1167.55 40.858C1167.55 45.61 1163.68 49.515 1158.61 49.515ZM1158.61 44.015C1160.46 44.015 1161.69 42.583 1161.69 40.89C1161.69 39.166 1160.46 37.734 1158.61 37.734C1156.75 37.734 1155.52 39.166 1155.52 40.89C1155.52 42.583 1156.75 44.015 1158.61 44.015ZM1139.01 27.06V43.494H1148.7V49.027H1138.2C1134.5 49.027 1133 47.074 1133 43.982V27.06H1139.01Z" fill="#5F5F5F"></path>
</g>
<defs>
<clipPath id="svg-2118978208_30335_clip0_111141_8704">
<rect width="202" height="40" fill="white" transform="translate(0 20)"></rect>
</clipPath>
<clipPath id="svg-2118978208_30335_clip1_111141_8704">
<rect width="166" height="40" fill="white" transform="translate(297.5 20)"></rect>
</clipPath>
<clipPath id="svg-2118978208_30335_clip2_111141_8704">
<rect width="164" height="40" fill="white" transform="translate(559 20)"></rect>
</clipPath>
<clipPath id="svg-2118978208_30335_clip3_111141_8704">
<rect width="166" height="40" fill="white" transform="translate(818.5 20)"></rect>
</clipPath>
<clipPath id="svg-2118978208_30335_clip4_111141_8704">
<rect width="220" height="40" fill="white" transform="translate(1080 20)"></rect>
</clipPath>
</defs>
</svg>