<svg xmlns="http://www.w3.org/2000/svg" width="2043" height="1141" fill="none"><g filter="url(#a)" style="mix-blend-mode:plus-lighter"><path fill="#FDA36F" d="M1935 1057c0-238.695-94.82-467.613-263.6-636.396C1502.61 251.821 1273.69 157 1035 157c-238.695 0-467.613 94.821-636.396 263.604C229.821 589.387 135 818.305 135 1057h18.565c0-233.771 92.865-457.968 258.166-623.269S801.229 175.565 1035 175.565c233.77 0 457.97 92.865 623.27 258.166 165.3 165.301 258.17 389.498 258.17 623.269H1935Z"/></g><g filter="url(#b)" style="mix-blend-mode:plus-lighter"><path fill="#FF5024" d="M1935 1057c0-238.695-94.82-467.613-263.6-636.396C1502.61 251.821 1273.69 157 1035 157c-238.695 0-467.613 94.821-636.396 263.604C229.821 589.387 135 818.305 135 1057h18.565c0-233.771 92.865-457.968 258.166-623.269S801.229 175.565 1035 175.565c233.77 0 457.97 92.865 623.27 258.166 165.3 165.301 258.17 389.498 258.17 623.269H1935Z"/></g><g filter="url(#c)" style="mix-blend-mode:plus-lighter"><path fill="#FF5024" d="M1935 1057c0-238.695-94.82-467.613-263.6-636.396C1502.61 251.821 1273.69 157 1035 157c-238.695 0-467.613 94.821-636.396 263.604C229.821 589.387 135 818.305 135 1057h18.565c0-233.771 92.865-457.968 258.166-623.269S801.229 175.565 1035 175.565c233.77 0 457.97 92.865 623.27 258.166 165.3 165.301 258.17 389.498 258.17 623.269H1935Z"/></g><g filter="url(#d)" style="mix-blend-mode:plus-lighter"><path fill="#FF5024" d="M1935 1057c0-238.695-94.82-467.613-263.6-636.396C1502.61 251.821 1273.69 157 1035 157c-238.695 0-467.613 94.821-636.396 263.604C229.821 589.387 135 818.305 135 1057h18.565c0-233.771 92.865-457.968 258.166-623.269S801.229 175.565 1035 175.565c233.77 0 457.97 92.865 623.27 258.166 165.3 165.301 258.17 389.498 258.17 623.269H1935Z"/></g><g filter="url(#e)"><path fill="#101010" d="M1935 1057c0-238.695-94.82-467.613-263.6-636.396C1502.61 251.821 1273.69 157 1035 157c-238.695 0-467.613 94.821-636.396 263.604C229.821 589.387 135 818.305 135 1057h1800Z"/></g><g filter="url(#f)" style="mix-blend-mode:plus-lighter"><path fill="#FDA36F" d="M1180.81 168.89a900.007 900.007 0 0 0-325.455 6.221l3.706 18.192a881.427 881.427 0 0 1 318.739-6.094l3.01-18.319Z"/></g><g filter="url(#g)" style="mix-blend-mode:plus-lighter"><path fill="#FF5024" d="M1329.81 206.653a900.013 900.013 0 0 0-627.078 13.927l6.853 17.254a881.448 881.448 0 0 1 614.145-13.64l6.08-17.541Z"/></g><g filter="url(#h)" style="mix-blend-mode:plus-lighter"><path fill="#FF5024" d="M1508.32 291.515a900.002 900.002 0 0 0-946.491-.093l9.761 15.792a881.435 881.435 0 0 1 926.97.091l9.76-15.79Z"/></g><g filter="url(#i)" style="mix-blend-mode:plus-lighter"><path fill="#FF5024" d="M1506.21 290.212a900.009 900.009 0 0 0-941.861-.342l9.708 15.825a881.436 881.436 0 0 1 922.433.334l9.72-15.817Z"/></g><path fill="#101010" d="M1935 1057c0-238.695-94.82-467.613-263.6-636.396C1502.61 251.821 1273.69 157 1035 157c-238.695 0-467.613 94.821-636.396 263.604C229.821 589.387 135 818.305 135 1057h1800Z"/><mask id="k" width="1697" height="985" x="184" y="156" maskUnits="userSpaceOnUse" style="mask-type:alpha"><path fill="url(#j)" d="M184 156h1697v985H184z"/></mask><g fill="#fff" mask="url(#k)" opacity=".2"><path d="M190.068 1001.56c30.193 263.78 194.753 417.84 256.7 475.86 80.903 68.66 134.264 96.77 212.545 134.89 50.68 21.59 61.727 25.11 114.778 42.03 26.128 7.49 29.442 8.24 69.975 17.37 16.952 3.48 18.734 3.77 48.412 8.67 12.637 1.92 13.55 2.02 36.909 4.85 10.28 1.13 10.663 1.17 30.355 2.87 8.925.69 9.264.7 26.555 1.69 8.219.4 8.219.4 24.613.88 8 .19 8 .19 24.17.24 6.49-.05 15.17-.17 21.66-.31 8.28-.21 8.28-.21 24.88-.97 8.95-.47 8.95-.47 26.97-1.8 10.34-.84 10.34-.84 31.01-3.05 12.82-1.48 12.82-1.48 38-5.19 17.5-2.77 17.5-2.77 50.27-9.35 27.81-6.09 30.39-6.82 73.47-19.01 57.26-18.6 68.44-23.51 122.12-47.09 101.42-50.76 147.49-84.92 226.44-155.68 189.46-191.39 222.17-364.99 229.3-524.071-.25-23.214-2.74-54.12-4.27-77.28-30.29-264.014-194.99-418.2-256.99-476.24-81.21-68.907-134.68-97.054-213.08-135.227-50.85-21.667-61.9-25.187-115.03-42.12-26.15-7.507-29.47-8.253-70.03-17.387-16.95-3.493-18.72-3.773-48.35-8.666-12.6-1.907-13.51-2.014-36.78-4.827-10.22-1.133-10.59-1.16-30.15-2.853-8.86-.694-9.19-.707-26.33-1.667-8.13-.4-8.13-.4-24.35-.88-7.91-.187-7.91-.187-23.89-.24-6.42.053-14.99.173-21.41.307-8.19.2-8.19.2-24.614.96-8.867.453-8.867.453-26.747 1.786-10.265.84-10.265.84-30.841 3.04-12.755 1.48-12.755 1.48-37.866 5.16-17.454 2.774-17.454 2.774-50.209 9.347-27.837 6.093-30.429 6.827-73.539 19.027-57.455 18.666-68.649 23.573-122.407 47.2-101.788 50.973-147.947 85.199-226.979 156.053-189.672 191.653-222.413 365.307-229.541 524.413.25 23.2 2.739 54.107 4.271 77.265Zm710.805 668.9c.56.08 1.104.16 1.664.22v.03c42.094 5.68 85.189 8.57 129.063 8.49 0 .02.03.03.05.04.28-.01.54-.02.81-.05h.01c-.28.03-.54.04-.82.05.03.02.07.03.13.03.04.01.1.03.18.04.07 0 .14.01.22.01.08.02.17.02.26.02.02-.06.05-.1.06-.14-.01.04-.03.08-.06.14h.28c.09-.02.16-.02.25-.03-.16-.04-.31-.07-.46-.11.15.04.31.07.46.11.07 0 .13-.01.19-.03.06 0 .11-.01.15-.02-.26-.03-.52-.04-.78-.06.26.02.53.03.78.06.04-.02.06-.03.07-.04.02-.02.02-.02.02-.03 0 0-.02-.01-.02-.03-.01-.01-.04-.02-.08-.04-.05 0-.09-.01-.15-.02-.06-.02-.13-.02-.21-.03-.07 0-.16-.01-.25-.01h-.28c-.09 0-.18 0-.25.01.1.04.21.08.33.12-.12-.04-.23-.08-.34-.12-.08 0-.15.01-.22.01-.06.02-.12.03-.18.03-.05.01-.07.03-.1.04-.03.01-.05.03-.05.04-43.874.07-86.984-2.85-129.078-8.56.015.01.015.01.015.03-.56-.08-1.104-.15-1.664-.23v-.03c-42.064-5.77-83.127-14.33-122.908-25.44v.04c-.53-.13-1.046-.28-1.561-.42-.015-.03-.015-.04-.015-.06-39.752-11.17-78.237-24.9-115.22-40.97v.07c-.486-.22-.972-.43-1.458-.64v-.07c-36.939-16.13-72.375-34.6-106.059-55.19 0 .03.015.06.015.08-.442-.26-.884-.53-1.326-.8 0-.04-.014-.06-.014-.09-33.625-20.64-65.512-43.4-95.381-68.07 0 .04 0 .07.015.11-.398-.32-.796-.65-1.179-.97 0-.04-.015-.07-.015-.11-29.824-24.71-57.646-51.32-83.215-79.61 0 .04.001.08.015.12-.339-.38-.677-.75-1.016-1.12-.015-.04-.015-.08-.015-.12-25.509-28.34-48.78-58.35-69.547-89.83 0 .05 0 .09.015.13-.28-.41-.545-.82-.825-1.24 0-.04 0-.08-.015-.13-20.708-31.51-38.912-64.48-54.377-98.69 0 .04 0 .09.015.13-.206-.44-.413-.89-.619-1.35 0-.04 0-.09-.015-.14-15.391-34.24-28.042-69.74-37.719-106.24 0 .04.015.09.015.14-.133-.48-.25-.96-.383-1.44 0-.05 0-.09-.015-.14a675.374 675.374 0 0 1-18.867-105.071c-1.959-20.64-2.474-48.28-3.402-68.974 7.099-258.28 114.513-404.68 229.541-524.413 83.421-76.654 135.236-108.787 226.979-156.053 55.644-24.96 68.457-29.227 122.407-47.2 27.807-8.32 32.122-9.334 73.539-19.027 17.674-3.787 19.515-4.093 50.209-9.347 13.005-2.04 13.932-2.16 37.866-5.16 10.457-1.213 10.84-1.24 30.841-3.04 9.014-.733 9.338-.76 26.747-1.786 8.218-.44 8.219-.44 24.614-.96 6.42-.134 14.99-.254 21.41-.307 8.01-.027 8.01-.027 23.89.24 8.1.187 8.1.187 24.35.88 8.73.427 8.73.427 26.33 1.667 10.02.786 10.02.786 30.15 2.853 12.37 1.373 12.37 1.373 36.78 4.827 16.73 2.56 16.73 2.56 48.35 8.666 26.13 5.494 27.78 5.947 70.03 17.387 52.25 16.107 61.83 20.08 115.03 42.12 98.51 45.187 146.21 81.227 213.08 135.227 211.42 184.693 244.53 396.493 256.99 476.24 2.33 23.106 3.23 54.08 4.27 77.28-7.02 258.091-114.36 404.401-229.3 524.071-83.11 76.41-134.83 108.46-226.44 155.68-55.45 24.88-68.25 29.14-122.12 47.09-27.77 8.31-32.08 9.32-73.47 19.01-17.69 3.78-19.53 4.1-50.27 9.35-13.02 2.05-13.96 2.16-38 5.19-10.5 1.21-11.28 1.28-31.01 3.05-9.08.73-9.41.76-26.97 1.8-8.32.44-8.32.44-24.88.97-6.49.14-15.17.26-21.66.31-8.12.03-8.12.03-24.17-.24-8.19-.19-8.19-.19-24.613-.88-8.807-.44-8.807-.44-26.555-1.69-10.089-.79-10.089-.79-30.355-2.87-12.416-1.39-12.416-1.39-36.909-4.85-16.746-2.56-16.746-2.56-48.412-8.67-26.099-5.49-27.749-5.95-69.975-17.37-52.079-16.06-61.653-20.02-114.778-42.03-98.15-45-145.766-80.99-212.545-134.89-175.473-163.92-228.024-301.1-255.934-469.28 3.962 27.38 11.459 63.6 17.291 90.7 0-.05-.015-.1-.015-.16.118.48.251.96.383 1.44 0 .06 0 .11.015.15 9.662 36.51 22.314 72 37.719 106.23 0-.04-.014-.1-.014-.14.191.44.397.9.604 1.35 0 .04.014.09.014.13 15.465 34.22 33.684 67.18 54.392 98.68-.015-.05-.015-.09-.03-.13.28.41.546.83.825 1.24 0 .04.015.08.015.13 20.767 31.46 44.038 61.46 69.547 89.78 0-.04-.014-.08-.014-.12.338.37.677.74 1.016 1.12 0 .04 0 .08.015.12 25.568 28.28 53.39 54.88 83.215 79.56-.015-.03-.015-.07-.015-.11.383.33.781.65 1.178.97v.11c29.884 24.65 61.756 47.39 95.381 68.01v-.09c.442.28.884.55 1.326.81v.1c33.683 20.56 69.12 39.01 106.058 55.12-.014-.03-.014-.04-.014-.07.486.21.972.43 1.458.63v.06c36.983 16.06 75.468 29.76 115.22 40.92v-.05c.515.15 1.045.29 1.561.44 0 .01.015.03.015.05a922.983 922.983 0 0 0 122.908 25.36s0-.01-.015-.02Z"/><path d="M1242.9 181.227c-8.02-1.853-17-3.586-26.83-5.2.39.094.76.187 1.14.28 10.13 1.654 19.38 3.454 27.6 5.36l-1.91-.44Zm-27.21-5.253c-17.1-2.787-36.73-5.187-58.31-7.107.27.08.52.16.78.24 21.71 1.92 41.46 4.334 58.67 7.134-.39-.094-.76-.187-1.14-.267Zm-58.79-7.147c-21.61-1.906-45.15-3.333-70.02-4.186.12.066.22.146.34.213 25.02.853 48.72 2.293 70.46 4.213-.27-.08-.52-.16-.78-.24Zm-70.58-4.2c-18.75-.64-38.25-.946-58.27-.893-6.55.027-13.05.08-19.47.173-.04.067-.1.134-.15.2 6.47-.093 13.01-.146 19.61-.173 20.12-.053 39.75.253 58.62.893-.12-.066-.22-.133-.34-.2Zm-78.33-.706c-25.993.386-50.84 1.386-73.919 2.906-.206.08-.412.147-.618.227 23.241-1.533 48.22-2.547 74.397-2.933.04-.067.1-.134.14-.2Zm-74.434 2.946c-23.065 1.534-44.377 3.587-63.347 6.054-.339.08-.678.173-1.016.253 19.102-2.48 40.547-4.547 63.744-6.093.206-.067.412-.147.619-.214Zm-63.774 6.107c-18.337 2.4-34.479 5.2-47.911 8.307l-1.871.44c13.624-3.174 30.061-6.04 48.766-8.494.339-.08.677-.16 1.016-.253Zm508.168 51.186c-4.37-1.733-9.25-3.427-14.62-5.08.44.173.86.36 1.29.533 5.53 1.693 10.53 3.44 15 5.227l-1.67-.68Zm-14.99-5.2c-16.59-5.067-37.75-9.707-62.64-13.787.35.16.69.32 1.04.48 24.98 4.094 46.25 8.747 62.89 13.854-.42-.187-.85-.36-1.29-.547Zm-63.2-13.88c-24.94-4.067-53.58-7.56-85.07-10.347.23.147.48.294.72.44 31.59 2.8 60.36 6.307 85.39 10.387-.33-.16-.69-.32-1.04-.48ZM1214 194.667c-31.54-2.774-65.88-4.854-102.18-6.107.11.147.21.28.31.427 36.44 1.24 70.92 3.333 102.57 6.12-.23-.147-.47-.294-.7-.44Zm-102.99-6.134a2342.6 2342.6 0 0 0-84.99-1.293c-9.58.027-19.05.106-28.414.24-.044.146-.088.28-.147.413 9.411-.133 18.931-.213 28.531-.24 29.31-.08 57.87.373 85.33 1.293l-.31-.413Zm-114.258-1.04c-37.94.574-74.172 2.04-107.856 4.267-.191.133-.383.28-.574.427 33.816-2.227 70.195-3.707 108.283-4.28.044-.134.103-.267.147-.414Zm-108.607 4.32c-33.654 2.227-64.745 5.214-92.42 8.827-.309.147-.619.307-.928.467 27.792-3.627 59.002-6.627 92.774-8.867.191-.147.383-.294.574-.427Zm-93.039 8.907c-27.645 3.613-51.858 7.853-71.83 12.56-.412.173-.81.347-1.222.52 20.06-4.733 44.376-8.987 72.125-12.613.309-.16.618-.32.927-.467Zm-72.286 12.667c-13.963 3.32-25.849 6.866-35.334 10.613l-1.634.667c9.573-3.8 21.591-7.4 35.76-10.76.397-.174.81-.347 1.208-.52Zm770.31 67.812c-8.56-4.746-20-9.306-34.01-13.613.4.24.8.48 1.19.72 14.11 4.347 25.63 8.934 34.23 13.72l-1.41-.827Zm-34.48-13.76c-21.39-6.546-48.69-12.533-80.78-17.786.32.227.63.453.95.68 32.18 5.266 59.56 11.267 81.01 17.827-.4-.24-.78-.481-1.18-.721Zm-81.51-17.893c-32.15-5.253-69.1-9.76-109.69-13.36.22.214.42.427.64.64 40.71 3.614 77.76 8.133 110.01 13.387-.31-.227-.63-.454-.96-.667Zm-110.59-13.44c-40.65-3.587-84.94-6.267-131.75-7.867.09.2.19.414.28.614 46.94 1.6 91.35 4.293 132.12 7.893-.22-.213-.45-.427-.65-.64Zm-132.79-7.907a3014.548 3014.548 0 0 0-109.61-1.666c-12.34.026-24.568.133-36.645.32l-.133.6c12.122-.173 24.378-.28 36.748-.32 37.75-.094 74.54.48 109.92 1.68-.09-.2-.19-.4-.28-.614Zm-147.36-1.333c-48.927.733-95.646 2.627-139.094 5.494-.162.2-.339.413-.501.613 43.552-2.867 90.403-4.76 139.463-5.494.044-.213.088-.413.132-.613Zm-140.052 5.56c-43.389 2.88-83.48 6.733-119.181 11.387-.28.213-.56.426-.855.653 35.805-4.667 76.013-8.533 119.521-11.427.162-.2.339-.413.515-.613Zm-119.977 11.48c-35.642 4.667-66.881 10.134-92.641 16.214-.368.226-.736.466-1.09.693 25.819-6.094 57.146-11.574 92.877-16.24.28-.227.575-.44.854-.667Zm-93.215 16.347c-25.672 6.093-45.85 12.8-59.444 19.946-.427.24-.839.494-1.266.747 13.638-7.16 33.875-13.893 59.605-19.986.368-.24.736-.48 1.105-.707Zm-59.738 20.107a51.5 51.5 0 0 0-1.768.946l-1.384.827c.603-.347 1.237-.68 1.87-1.027.427-.253.854-.506 1.282-.746Zm1023.442 72.815c-10.44-8.24-27.98-16.067-51.56-23.32.35.293.7.6 1.04.893 31.48 10.16 37.84 14.334 51.79 23.467l-1.27-1.04Zm-52.12-23.493c-25.72-7.867-58.53-15.067-97.11-21.374l.84.84c38.66 6.334 71.54 13.534 97.31 21.427-.35-.307-.7-.6-1.04-.893Zm-97.98-21.52c-38.66-6.294-83.06-11.72-131.86-16.04l.58.813c48.89 4.333 93.39 9.76 132.12 16.08-.28-.293-.56-.573-.84-.853Zm-132.95-16.147c-48.85-4.307-102.1-7.533-158.34-9.453.07.266.16.533.25.786 56.36 1.934 109.71 5.16 158.67 9.48-.2-.266-.39-.533-.58-.813Zm-159.6-9.493c-42.4-1.44-86.51-2.147-131.76-2.014-14.83.04-29.511.16-44.033.374-.044.266-.074.533-.118.8 14.552-.214 29.281-.347 44.141-.387 45.33-.12 89.53.573 132.01 2.013-.07-.266-.16-.533-.24-.786Zm-177.118-1.614c-58.811.88-114.985 3.16-167.182 6.6-.162.267-.309.534-.457.8 52.315-3.453 108.593-5.72 167.521-6.613.029-.267.073-.52.118-.787Zm-168.345 6.68c-52.153 3.454-100.345 8.094-143.263 13.68l-.751.84c43.006-5.613 91.286-10.253 143.557-13.72.147-.266.295-.533.457-.8Zm-144.221 13.814c-42.83 5.6-80.387 12.16-111.331 19.466-.339.294-.663.587-.987.88 31.018-7.32 68.649-13.906 111.567-19.52.251-.28.501-.56.751-.826Zm-112.023 19.64c-30.856 7.32-55.114 15.373-71.462 23.96-.368.306-.751.613-1.12.933 16.378-8.613 40.68-16.693 71.595-24.027.324-.293.663-.573.987-.866Zm-71.816 24.16c-4.61 2.44-8.571 4.92-11.871 7.426l-1.252 1.027c3.359-2.533 8.381-5.293 11.989-7.533.383-.307.751-.614 1.134-.92ZM1684.71 435.92a43.21 43.21 0 0 0-1.93-1.867c.33.36.67.733.99 1.093.69.64 1.36 1.267 1.98 1.907l-1.04-1.133Zm-2.18-2.094c-11.47-10.346-32.66-20.16-62.02-29.187.3.347.59.694.9 1.04 29.4 9.054 50.62 18.881 62.11 29.241-.34-.374-.66-.734-.99-1.094Zm-62.68-29.387c-29.47-9.026-67.12-17.279-111.35-24.519.25.333.49.679.73 1.013 44.3 7.253 81.99 15.506 111.52 24.546l-.9-1.04Zm-112.33-24.679c-44.33-7.227-95.25-13.44-151.2-18.4.17.333.34.653.5.986 56.02 4.96 107.03 11.187 151.42 18.427-.24-.334-.47-.68-.72-1.013Zm-152.44-18.507c-56.03-4.947-117.08-8.64-181.59-10.854.08.32.15.64.22.974 64.6 2.2 125.74 5.907 181.86 10.853-.17-.32-.33-.653-.49-.973Zm-183.03-10.893c-48.62-1.654-99.2-2.454-151.07-2.307-17 .04-33.844.187-50.502.44-.03.307-.059.626-.103.946a4206.07 4206.07 0 0 1 50.595-.426c51.94-.147 102.61.653 151.3 2.307-.07-.32-.15-.64-.22-.96Zm-203.089-1.854c-67.441 1.013-131.834 3.627-191.704 7.573-.133.32-.265.641-.383.974 59.959-3.96 124.454-6.574 191.984-7.587.029-.32.073-.64.103-.96Zm-193.045 7.654c-59.797 3.973-115.043 9.293-164.25 15.706-.221.32-.427.654-.648.987 49.281-6.413 104.615-11.747 164.516-15.72.132-.32.265-.64.382-.973Zm-165.355 15.839c-49.119 6.44-92.17 13.96-127.665 22.334l-.84 1.04c35.555-8.4 78.679-15.934 127.872-22.374.206-.333.427-.666.633-1Zm-128.46 22.521c-35.378 8.4-63.2 17.639-81.934 27.493-.324.36-.648.706-.958 1.066 18.764-9.866 46.616-19.119 82.052-27.519l.84-1.04Zm-82.347 27.706c-8.675 4.6-15.376 9.32-19.942 14.16l-1.031 1.134c4.566-4.854 11.297-9.601 20.001-14.214l.972-1.08ZM1757.89 529.293c-1.52-2.026-3.38-4.027-5.56-6.013.28.4.55.813.81 1.213 2.2 2.014 4.07 4.04 5.6 6.08l-.85-1.28Zm-5.84-6.28c-12.69-11.44-36.14-22.306-68.65-32.306.26.4.49.786.73 1.186 32.53 10.014 56.02 20.88 68.73 32.347-.26-.413-.53-.814-.81-1.227Zm-69.37-32.52c-32.64-10-74.29-19.133-123.26-27.147.21.387.4.774.59 1.161 49.02 8.026 90.73 17.16 123.39 27.16-.23-.387-.48-.787-.72-1.174Zm-124.35-27.32c-49.07-8-105.44-14.867-167.37-20.36.13.373.26.747.4 1.12 62 5.507 118.43 12.387 167.56 20.4-.19-.386-.4-.773-.59-1.16Zm-168.76-20.493c-62-5.467-129.58-9.56-200.99-12 .06.373.11.733.17 1.107 71.49 2.453 139.14 6.546 201.22 12.026-.13-.373-.26-.747-.4-1.133Zm-202.58-12.053c-53.82-1.827-109.82-2.72-167.24-2.56-18.83.053-37.459.213-55.913.493-.015.36-.045.733-.074 1.107 18.469-.267 37.127-.44 55.967-.48 57.5-.16 113.54.72 167.43 2.546-.06-.373-.12-.733-.17-1.106Zm-224.832-2.054c-74.644 1.134-145.929 4.014-212.207 8.387l-.309 1.12c66.337-4.374 137.71-7.267 212.442-8.387.029-.373.059-.746.074-1.12Zm-213.679 8.48c-66.19 4.4-127.356 10.28-181.837 17.374-.162.386-.338.76-.515 1.146 54.539-7.106 115.765-13 182.042-17.4l.31-1.12Zm-183.044 17.534c-54.377 7.12-102.038 15.453-141.334 24.72-.22.4-.456.786-.677 1.173 39.339-9.28 87.059-17.627 141.495-24.747.162-.386.339-.76.516-1.146ZM423.233 479.52c-39.178 9.293-69.96 19.52-90.698 30.426-.265.4-.53.8-.78 1.2 20.767-10.92 51.578-21.159 90.8-30.453.221-.4.442-.786.678-1.173Zm-91.169 30.667c-11.797 6.253-20.295 12.733-25.185 19.373l-.84 1.28c4.875-6.667 13.403-13.173 25.245-19.453.265-.4.53-.8.78-1.2ZM1815.47 632.614c-1.91-3.64-4.83-7.227-8.7-10.773.2.44.4.893.6 1.333 3.89 3.56 6.82 7.173 8.74 10.84l-.64-1.4Zm-9.01-11.04c-13.65-12.32-38.88-24-73.83-34.76.17.44.35.867.53 1.307 34.99 10.773 60.23 22.453 73.9 34.773-.19-.44-.4-.88-.6-1.32Zm-74.62-35c-35.11-10.747-79.91-20.56-132.58-29.187.15.427.29.854.44 1.28 52.71 8.627 97.55 18.467 132.67 29.214-.17-.44-.35-.867-.53-1.307Zm-133.76-29.373c-52.77-8.6-113.41-16-180.02-21.907.1.413.2.84.31 1.267 66.66 5.906 127.34 13.306 180.15 21.92a62.43 62.43 0 0 0-.44-1.28Zm-181.51-22.04c-66.71-5.894-139.39-10.294-216.2-12.92.05.413.09.84.13 1.253 76.87 2.64 149.62 7.04 216.38 12.933-.1-.426-.21-.853-.31-1.266Zm-217.91-12.974c-57.89-1.96-118.1-2.92-179.87-2.746-20.255.053-40.3.226-60.139.52-.015.413-.045.84-.059 1.253 19.853-.293 39.928-.467 60.178-.52 61.82-.173 122.08.787 180.03 2.747-.05-.427-.09-.84-.14-1.254Zm-241.821-2.2c-80.284 1.2-156.96 4.307-228.245 9.014-.074.413-.162.84-.236 1.253 71.33-4.707 148.079-7.8 228.422-9.013.03-.414.044-.84.059-1.254Zm-229.836 9.12c-71.196 4.72-136.988 11.054-195.577 18.68-.133.427-.265.854-.383 1.28 58.633-7.64 124.469-13.973 195.724-18.706.074-.414.163-.84.236-1.254Zm-196.888 18.854c-58.472 7.653-109.741 16.613-152.011 26.6-.177.426-.339.853-.501 1.293 42.285-9.987 93.598-18.96 152.129-26.613.132-.427.25-.854.383-1.28Zm-152.954 26.813c-42.138 10-75.247 21-97.561 32.733l-.574 1.32c22.328-11.746 55.467-22.76 97.634-32.76.162-.426.339-.853.501-1.293Zm-98.047 32.987c-18.543 10.72-19.176 11.52-29.633 24.866l-.633 1.4c7.541-11.226 9.205-12.266 29.677-24.946.192-.44.383-.88.589-1.32Zm1576.496 136.56c-1.87-5.36-7.29-11.373-11.03-15.866.13.48.25.96.38 1.44 5.7 5.2 9.41 10.519 11.05 15.919l-.4-1.493Zm-11.34-16.147c-14.33-12.92-40.79-25.173-77.46-36.453.12.467.24.947.34 1.414 36.69 11.293 63.15 23.546 77.49 36.466-.12-.48-.25-.947-.37-1.427ZM1766 691.468c-36.82-11.267-83.82-21.573-139.05-30.613l.27 1.4c55.26 9.053 102.28 19.359 139.12 30.626-.12-.467-.24-.933-.34-1.413Zm-140.29-30.813c-55.36-9.014-118.94-16.774-188.81-22.974.05.467.11.92.19 1.387 69.9 6.2 133.51 13.96 188.9 22.987-.1-.467-.19-.934-.28-1.4Zm-190.38-23.107c-69.95-6.174-146.19-10.8-226.75-13.547l.09 1.373c80.59 2.76 156.85 7.374 226.86 13.56-.08-.466-.14-.933-.2-1.386Zm-228.55-13.614c-60.71-2.053-123.88-3.053-188.65-2.879-21.243.053-42.275.239-63.087.546-.014.453-.014.92-.029 1.373 20.811-.293 41.858-.479 63.096-.546 64.81-.173 128 .827 188.76 2.893l-.09-1.387Zm-253.637-2.306c-84.202 1.267-164.633 4.52-239.394 9.453-.044.467-.103.92-.147 1.387 74.805-4.934 155.266-8.187 239.512-9.454.015-.466.029-.919.029-1.386Zm-241.058 9.56c-74.673 4.96-143.675 11.6-205.137 19.6-.073.467-.162.933-.235 1.4 61.476-8.013 130.508-14.654 205.224-19.614.045-.466.104-.919.148-1.386Zm-206.506 19.786c-61.329 8.027-115.102 17.427-159.435 27.894-.103.467-.206.933-.324 1.4 44.362-10.467 98.15-19.867 159.523-27.907.074-.466.162-.933.236-1.387Zm-160.422 28.121c-44.185 10.48-78.929 22.026-102.317 34.319-.133.48-.251.947-.369 1.427 23.404-12.307 58.163-23.853 102.362-34.333.118-.48.221-.947.324-1.413Zm-102.848 34.6c-18.292 9.693-29.545 19.866-32.858 30.346l-.398 1.494c3.284-10.507 14.566-20.707 32.903-30.414.118-.48.236-.96.353-1.426ZM1876.48 862.641c-.02-.16-.03-.32-.05-.48-.76-6.92-4.9-13.72-12.13-20.333.04.493.07 1 .12 1.507 7.24 6.613 11.38 13.413 12.15 20.333.01.187.03.36.04.533l-.13-1.56Zm-12.52-21.106c-14.67-13.24-41.77-25.787-79.33-37.334.05.494.09 1 .12 1.494 37.56 11.56 64.67 24.106 79.34 37.346-.04-.507-.09-1.013-.13-1.506Zm-80.17-37.6c-37.7-11.534-85.83-22.094-142.42-31.347.03.493.07.986.1 1.493 56.59 9.253 104.74 19.813 142.44 31.36-.03-.507-.07-1-.12-1.506Zm-143.69-31.561c-56.7-9.24-121.83-17.186-193.4-23.533.03.493.05 1 .08 1.494 71.56 6.346 136.71 14.293 193.43 23.533-.03-.493-.06-.987-.11-1.494Zm-194.99-23.679c-71.66-6.32-149.74-11.04-232.26-13.867.01.493.03.987.03 1.493 82.52 2.814 160.62 7.547 232.29 13.867-.01-.493-.04-.987-.06-1.493Zm-234.1-13.934c-62.19-2.106-126.89-3.133-193.24-2.947-21.753.054-43.3.24-64.597.56-.015.494-.015.987-.015 1.494a5396.09 5396.09 0 0 1 64.612-.573c66.35-.174 131.07.853 193.27 2.96 0-.494-.02-1-.03-1.494Zm-259.782-2.36c-86.264 1.294-168.639 4.627-245.212 9.68-.014.493-.029 1-.059 1.493 76.603-5.053 158.978-8.386 245.257-9.679 0-.507 0-1 .014-1.494Zm-246.92 9.787c-76.485 5.08-147.166 11.88-210.115 20.08-.029.507-.059 1-.074 1.493 62.949-8.2 133.631-15 210.145-20.08l.044-1.493Zm-211.514 20.267c-62.831 8.226-117.9 17.853-163.308 28.573-.044.493-.074 1-.103 1.493 45.407-10.72 100.491-20.347 163.323-28.573l.088-1.493ZM328.47 791.268c-45.26 10.733-80.829 22.547-104.807 35.147-.029.506-.074.999-.118 1.506 23.963-12.6 59.547-24.426 104.822-35.16.029-.493.073-1 .103-1.493Zm-105.337 35.427c-21.283 11.293-33.272 23.186-34.582 35.493l-.133 1.56c1.267-12.32 13.27-24.24 34.597-35.547.044-.493.073-1 .118-1.506ZM1876.61 984.52c.16-1.506.16-3.026-.01-4.546-.77-6.92-4.91-13.72-12.14-20.334-.05.507-.09 1.014-.13 1.507 7.24 6.627 11.37 13.413 12.13 20.347.18 1.533.18 3.066.02 4.6l.13-1.574Zm-12.49-25.173c-14.67-13.24-41.78-25.787-79.34-37.347-.03.507-.07 1.014-.12 1.52 37.56 11.56 64.67 24.107 79.34 37.334.05-.507.09-1 .12-1.507Zm-80.18-37.6c-37.71-11.547-85.85-22.107-142.45-31.36l-.09 1.52c56.57 9.267 104.72 19.813 142.42 31.36.05-.507.09-1.013.12-1.52Zm-143.72-31.573c-56.7-9.24-121.85-17.187-193.43-23.534-.03.507-.04 1.014-.07 1.52 71.58 6.36 136.71 14.307 193.41 23.547l.09-1.533Zm-195.03-23.68c-71.67-6.32-149.78-11.054-232.3-13.88-.01.506-.03 1.026-.03 1.533 82.51 2.827 160.6 7.547 232.27 13.88.01-.507.04-1.027.06-1.533Zm-234.14-13.934c-62.21-2.106-126.91-3.133-193.28-2.96-21.753.067-43.316.254-64.628.56.015.52.015 1.027.015 1.534a5684.72 5684.72 0 0 1 64.613-.56c66.35-.187 131.05.84 193.25 2.946 0-.506.02-1.013.03-1.52Zm-259.837-2.373c-86.279 1.307-168.669 4.64-245.256 9.693l.044 1.52c76.572-5.053 158.963-8.373 245.212-9.68v-1.533Zm-246.965 9.8c-76.513 5.08-147.21 11.88-210.158 20.08l.088 1.533c62.934-8.213 133.615-15 210.114-20.08l-.044-1.533ZM492.69 880.254c-62.846 8.226-117.93 17.853-163.337 28.573.029.507.074 1.013.103 1.52 45.407-10.72 100.492-20.347 163.323-28.573l-.089-1.52Zm-164.353 28.813c-45.275 10.733-80.859 22.56-104.822 35.16.044.507.074 1.013.118 1.52 23.978-12.6 59.546-24.427 104.807-35.16-.03-.507-.074-1.013-.103-1.52Zm-105.352 35.44c-23.639 12.533-35.82 25.813-34.641 39.56l.132 1.56c-1.207-13.76 10.973-27.067 34.627-39.6a48.572 48.572 0 0 1-.118-1.52Zm-14.874 154.173c0 .05.015.11.015.16.147 1.23.412 2.45.78 3.68l.398 1.49a20.965 20.965 0 0 1-.795-3.74c-.015-.04-.015-.1-.015-.15-.133-.48-.265-.96-.383-1.44Zm1647.929 4.12c.89-2.89 1.19-5.8.87-8.75-.76-6.76-4.79-13.4-11.86-19.86-.13.49-.25.97-.38 1.45 7.07 6.47 11.1 13.09 11.85 19.85.34 2.96.03 5.9-.88 8.8l.4-1.49Zm-11.32-28.89c-14.33-12.94-40.81-25.19-77.48-36.48-.12.49-.24.98-.34 1.46 36.66 11.3 63.13 23.54 77.46 36.46.11-.48.25-.96.36-1.44Zm-78.31-36.72c-36.83-11.28-83.86-21.59-139.12-30.64-.1.49-.19.98-.28 1.48 55.25 9.04 102.24 19.34 139.07 30.61l.33-1.45Zm-140.36-30.84c-55.39-9.03-119.02-16.79-188.93-22.99l-.18 1.493c69.87 6.2 133.47 13.96 188.83 22.977.09-.5.19-.99.28-1.48Zm-190.48-23.124c-70-6.186-146.28-10.8-226.89-13.56l-.09 1.494c80.58 2.76 156.82 7.373 226.79 13.546.06-.493.12-.986.19-1.48ZM1206.88 969.6c-60.75-2.054-123.95-3.054-188.77-2.88-21.252.066-42.299.24-63.11.546l.044 1.507c20.797-.307 41.829-.493 63.066-.547 64.79-.186 127.96.814 188.69 2.88.03-.506.05-1 .08-1.506Zm-253.78-2.307c-84.246 1.267-164.722 4.52-239.527 9.467.044.493.088.986.147 1.493 74.761-4.933 155.208-8.187 239.424-9.453l-.044-1.507Zm-241.191 9.573c-74.732 4.96-143.764 11.6-205.255 19.614.074.493.163.986.236 1.48 61.462-8.014 130.479-14.64 205.166-19.6-.059-.494-.103-1-.147-1.494Zm-206.624 19.787c-61.373 8.037-115.176 17.437-159.523 27.907l.309 1.48c44.333-10.47 98.106-19.87 159.464-27.894-.088-.506-.176-1-.25-1.493Zm-160.51 28.147c-44.214 10.48-78.973 22.04-102.391 34.35.118.48.25.96.368 1.45 23.403-12.31 58.133-23.85 102.332-34.33-.103-.5-.206-.98-.309-1.47Zm-102.907 34.61c-23.241 12.32-35.141 25.4-33.801 38.92.015.06.015.1.015.15.132.48.25.96.382 1.44 0-.05-.014-.11-.014-.15-1.341-13.52 10.545-26.58 33.787-38.9a38.88 38.88 0 0 1-.369-1.46Zm4.342 146.95c0 .04.015.1.015.14.324 2.65 1.178 5.26 2.533 7.86l.634 1.4c-1.37-2.61-2.239-5.25-2.563-7.92 0-.04-.015-.09-.015-.13-.206-.45-.412-.91-.604-1.35Zm1570.06 7.99c2.13-4.08 3-8.21 2.53-12.4-.72-6.45-4.57-12.79-11.31-18.95-.21.46-.4.91-.61 1.36 6.75 6.16 10.59 12.5 11.32 18.94.45 4.2-.42 8.34-2.57 12.45l.64-1.4Zm-9.09-31.63c-13.67-12.33-38.93-24.01-73.91-34.78-.17.46-.37.93-.54 1.4 34.96 10.76 60.19 22.42 73.86 34.74.19-.45.4-.9.59-1.36Zm-74.69-35.02c-35.14-10.75-79.99-20.59-132.7-29.22-.15.48-.3.95-.44 1.42 52.68 8.62 97.5 18.45 132.6 29.2.17-.47.36-.94.54-1.4Zm-133.88-29.4c-52.83-8.62-113.51-16.02-180.19-21.94l-.3 1.44c66.63 5.91 127.26 13.31 180.05 21.91.15-.47.29-.95.44-1.41Zm-181.67-22.07c-66.78-5.89-139.52-10.29-216.41-12.92-.04.48-.08.96-.13 1.44 76.82 2.63 149.52 7.03 216.24 12.92.09-.48.19-.96.3-1.44Zm-218.11-12.99c-57.96-1.96-118.23-2.92-180.06-2.74-20.265.05-40.34.22-60.194.52.03.48.044.96.059 1.45 19.839-.29 39.899-.47 60.155-.53 61.77-.16 122.01.78 179.9 2.74.05-.48.09-.96.14-1.44Zm-242.065-2.2c-80.358 1.22-157.108 4.32-228.452 9.03.074.48.148.96.236 1.43 71.285-4.7 147.975-7.8 228.274-9-.014-.5-.029-.98-.058-1.46Zm-230.042 9.14c-71.271 4.72-137.121 11.05-195.77 18.7.133.47.266.95.383 1.42 58.604-7.64 124.411-13.96 195.622-18.7-.088-.48-.162-.94-.235-1.42Zm-197.08 18.86c-58.531 7.67-109.844 16.64-152.144 26.63.162.47.324.93.5 1.4 42.271-9.99 93.555-18.95 152.041-26.6-.132-.48-.265-.95-.397-1.43Zm-153.087 26.84c-42.182 10.02-75.321 21.03-97.649 32.76l.575 1.38c22.313-11.72 55.437-22.74 97.575-32.74-.162-.46-.339-.93-.501-1.4Zm-98.15 33.03c-22.166 11.75-33.507 24.21-32.24 37.11.015.05.015.1.015.14.206.46.412.91.618 1.35-.014-.04-.014-.09-.014-.13-1.282-12.9 10.044-25.36 32.211-37.1-.207-.46-.398-.92-.59-1.37Z"/><path d="M1033.38 1679.16c43.24-1.21 85.74-5.4 127.21-12.33.55-.1 1.09-.19 1.64-.28 41.46-7.02 81.92-16.76 121.14-29.04l1.54-.48c39.18-12.35 77.12-27.2 113.57-44.36.47-.23.96-.46 1.43-.68 36.41-17.22 71.33-36.72 104.53-58.3.44-.28.87-.56 1.31-.85 33.14-21.63 64.55-45.32 94.01-70.85.38-.34.77-.67 1.15-1 29.4-25.59 56.82-53.02 82.02-82.06.34-.38.66-.77 1-1.16 25.14-29.08 48.08-59.77 68.55-91.85.26-.43.54-.84.81-1.27 20.4-32.12 38.35-65.62 53.6-100.29.2-.45.39-.91.6-1.36 15.17-34.71 27.64-70.56 37.17-107.36.14-.48.25-.96.39-1.45 9.44-36.82 15.95-74.576 19.28-113.042.04-.494.08-1 .13-1.507a697.767 697.767 0 0 0 2.43-58.027c0-19.64-.84-39.066-2.48-58.28-.04-.506-.07-1.013-.11-1.506-3.35-38.267-9.87-75.654-19.34-111.934-.13-.48-.25-.96-.38-1.44a681.059 681.059 0 0 0-37.21-105.28c-.2-.44-.4-.893-.6-1.333-15.26-33.827-33.21-66.347-53.63-97.347-.26-.4-.53-.813-.81-1.213-20.47-30.974-43.4-60.414-68.56-88.134-.32-.36-.66-.733-.99-1.093a758.078 758.078 0 0 0-42.19-42.773l-5.73-5.307c14.39 14.293 34.01 33 47.67 47.854.33.36.65.72.99 1.093 25.14 27.707 48.06 57.146 68.53 88.093.28.413.55.813.81 1.227 20.4 31 38.35 63.507 53.6 97.333.2.44.41.88.6 1.32a681.059 681.059 0 0 1 37.21 105.28c.11.48.25.947.36 1.427 9.47 36.28 16 73.667 19.33 111.933.04.494.09 1 .13 1.507a684.96 684.96 0 0 1 2.47 58.28c0 19.493-.82 38.84-2.44 58.027-.03.506-.07 1-.12 1.506a695.143 695.143 0 0 1-19.28 113.056c-.12.48-.25.96-.37 1.44-9.52 36.8-22 72.66-37.17 107.37-.19.45-.4.91-.59 1.36-15.24 34.68-33.18 68.19-53.58 100.32-.28.43-.55.84-.81 1.27-20.46 32.09-43.39 62.78-68.52 91.88-.34.38-.67.77-1 1.16-25.2 29.04-52.61 56.48-81.99 82.06-.38.35-.77.68-1.15 1.02-29.44 25.54-60.84 49.25-93.98 70.89-.43.28-.87.56-1.3.85-33.18 21.59-68.09 41.1-104.5 58.34-.47.21-.95.44-1.42.66-36.44 17.18-74.35 32.04-113.53 44.4-.52.16-1.02.32-1.53.48a916.597 916.597 0 0 1-121.1 29.1c-.54.09-1.09.17-1.63.26-41.48 6.96-83.94 11.16-127.17 12.39Z"/><path d="M1033.29 1679.12c39.11-3.17 77.52-9.28 115.03-18.09.5-.12.99-.23 1.49-.35 37.48-8.89 74.07-20.47 109.53-34.52.48-.19.93-.37 1.4-.56 35.42-14.11 69.73-30.68 102.69-49.49.43-.24.87-.5 1.3-.74a838.34 838.34 0 0 0 94.51-63.02c.39-.31.79-.62 1.19-.91a855.246 855.246 0 0 0 85-75.12c.35-.35.7-.71 1.06-1.05a859.346 859.346 0 0 0 74.16-85.76c.29-.4.6-.8.89-1.2 22.74-30.22 43.48-61.95 62-94.96.23-.43.48-.87.72-1.3 18.45-33.05 34.68-67.37 48.47-102.72.17-.46.37-.93.54-1.4 13.73-35.38 25-71.81 33.63-109.04.1-.48.22-.97.34-1.46 8.54-37.24 14.42-75.296 17.42-113.909.04-.507.09-1.014.12-1.52a768.731 768.731 0 0 0 2.21-58.134c0-19.64-.75-39.026-2.24-58.173-.03-.493-.08-1-.12-1.493-3.02-38.12-8.91-75.2-17.48-111.067-.11-.467-.22-.946-.34-1.413-8.63-35.827-19.91-70.427-33.66-103.6-.17-.44-.35-.867-.53-1.307-13.8-33.133-30.03-64.84-48.5-94.92-.23-.4-.47-.787-.72-1.187a677.863 677.863 0 0 0-61.99-85.026c-.31-.347-.6-.694-.9-1.04a675.851 675.851 0 0 0-74.17-73.894c-.34-.293-.69-.6-1.05-.893a678.11 678.11 0 0 0-84.98-61.547c-.4-.24-.79-.48-1.19-.72-30-18.293-61.58-34.346-94.5-47.973-.42-.173-.85-.36-1.29-.533a692.29 692.29 0 0 0-56.19-20.334l-1.62-.506a689.574 689.574 0 0 1 57.44 20.72c.44.186.87.36 1.29.546a682.534 682.534 0 0 1 94.4 47.934c.4.24.78.48 1.18.72a679.116 679.116 0 0 1 84.91 61.52c.33.293.69.586 1.04.893a676.455 676.455 0 0 1 74.07 73.867c.29.346.6.693.9 1.04a678.342 678.342 0 0 1 61.93 85.013c.24.387.49.787.72 1.173a684.346 684.346 0 0 1 48.44 94.907c.18.44.36.867.53 1.307 13.73 33.173 25 67.76 33.63 103.586.1.48.22.947.34 1.414 8.54 35.853 14.43 72.946 17.45 111.053.05.507.09 1 .12 1.507a749.112 749.112 0 0 1 2.24 58.16c0 19.506-.75 38.893-2.21 58.146-.03.507-.08 1.014-.12 1.52-2.99 38.614-8.87 76.667-17.41 113.923-.12.48-.22.97-.34 1.45-8.61 37.24-19.87 73.67-33.58 109.05-.17.47-.37.94-.54 1.4-13.77 35.36-29.99 69.68-48.41 102.74-.26.42-.49.86-.73 1.29a848.539 848.539 0 0 1-61.91 94.99c-.31.4-.61.8-.92 1.2-22.75 30.18-47.53 58.85-74.07 85.78-.35.35-.7.71-1.04 1.06-26.6 26.88-54.98 52-84.93 75.14-.38.31-.78.6-1.17.91-29.98 23.08-61.52 44.19-94.41 63.05-.43.26-.87.5-1.3.75-32.92 18.81-67.19 35.4-102.57 49.52-.47.19-.94.37-1.4.56-35.42 14.07-71.96 25.67-109.41 34.56-.5.12-.99.23-1.48.35a777.835 777.835 0 0 1-114.91 18.13Z"/><path d="M1033.15 1679.09c31.65-4.81 62.75-12.54 93.11-22.93.4-.13.81-.28 1.21-.41 30.34-10.46 59.96-23.59 88.66-39.12.38-.22.77-.42 1.14-.62 28.67-15.6 56.45-33.62 83.12-53.81.36-.27.71-.53 1.06-.8 26.65-20.24 52.21-42.65 76.52-66.99.31-.32.63-.64.94-.96 24.27-24.38 47.26-50.7 68.82-78.69.28-.36.56-.73.84-1.09 21.52-28.04 41.6-57.75 60.05-88.88.24-.42.49-.83.72-1.24 18.41-31.18 35.2-63.78 50.18-97.56.21-.44.4-.9.59-1.34a968.828 968.828 0 0 0 39.24-104.76c.14-.46.29-.93.44-1.41a982.741 982.741 0 0 0 27.22-110.45c.09-.5.17-.99.28-1.48 6.91-37.602 11.68-75.896 14.11-114.642l.09-1.52a963.245 963.245 0 0 0 1.78-58.24c0-19.627-.61-38.987-1.8-58.067-.03-.507-.07-1-.1-1.493-2.45-37.987-7.22-74.827-14.16-110.334-.08-.466-.17-.933-.26-1.4-7-35.453-16.13-69.586-27.25-102.186-.15-.427-.29-.854-.44-1.28-11.16-32.56-24.3-63.574-39.25-92.881-.19-.386-.38-.773-.59-1.16-14.99-29.253-31.78-56.786-50.19-82.413-.24-.333-.48-.68-.73-1.013-18.45-25.573-38.51-49.227-60.03-70.774l-.84-.839c-21.56-21.494-44.55-40.894-68.81-57.974-.32-.226-.63-.453-.96-.68-24.28-17.026-49.85-31.76-76.5-44-.35-.16-.69-.32-1.04-.48-26.67-12.173-54.44-21.866-83.11-28.866-.39-.094-.75-.187-1.14-.28a467.852 467.852 0 0 0-33-6.72l-.67-.107a460.445 460.445 0 0 1 33.29 6.773c.38.08.75.174 1.13.267 28.62 7 56.32 16.68 82.94 28.84.35.16.71.32 1.04.48 26.6 12.24 52.1 26.96 76.34 43.986.33.214.65.44.96.667 24.21 17.08 47.16 36.467 68.66 57.947.28.28.56.56.84.853 21.48 21.533 41.51 45.187 59.92 70.747.25.333.48.68.72 1.013 18.38 25.613 35.13 53.147 50.09 82.4.19.387.4.774.59 1.16 14.9 29.294 28.03 60.307 39.16 92.867.15.427.3.853.44 1.28 11.09 32.586 20.22 66.72 27.19 102.173.09.467.18.934.28 1.4 6.91 35.494 11.68 72.334 14.11 110.32.05.507.07 1 .1 1.494a925.49 925.49 0 0 1 1.8 58.08c0 19.493-.59 38.92-1.78 58.226l-.09 1.534a970.865 970.865 0 0 1-14.08 114.642c-.09.49-.19.98-.28 1.48a978.944 978.944 0 0 1-27.16 110.46c-.15.47-.29.95-.44 1.42-11.14 35.94-24.24 70.94-39.15 104.77-.19.44-.4.88-.59 1.32-14.95 33.8-31.71 66.41-50.07 97.59-.24.41-.49.82-.73 1.24-18.41 31.14-38.44 60.85-59.91 88.89-.28.37-.57.73-.85 1.11-21.51 27.98-44.46 54.3-68.67 78.7-.32.32-.65.64-.96.96-24.24 24.35-49.75 46.78-76.35 67.03-.35.27-.7.52-1.04.79-26.63 20.2-54.35 38.22-82.97 53.84-.37.2-.75.41-1.12.61-28.66 15.55-58.2 28.68-88.5 39.16-.4.13-.8.27-1.19.41-30.3 10.4-61.33 18.14-92.92 22.96Z"/><path d="M1032.94 1679.07c21.54-6.06 42.69-14.99 63.35-26.56.26-.16.54-.31.81-.47 20.65-11.64 40.8-25.92 60.33-42.57.25-.23.51-.44.76-.67 19.52-16.72 38.41-35.81 56.56-57.04.24-.28.47-.56.71-.84 18.14-21.28 35.52-44.69 52.06-69.99.21-.32.43-.65.65-.98 16.49-25.34 32.15-52.55 46.81-81.38.19-.37.38-.76.57-1.13 14.64-28.87 28.29-59.36 40.84-91.21.18-.43.34-.86.5-1.27 12.52-31.89 23.95-65.15 34.14-99.52.14-.45.27-.91.4-1.36 10.16-34.4 19.1-69.91 26.69-106.28.1-.48.2-.96.31-1.44 7.55-36.4 13.77-73.65 18.51-111.506l.18-1.493c4.71-37.88 7.95-76.36 9.6-115.2.03-.507.05-1.013.07-1.52.8-19.36 1.21-38.8 1.21-58.307 0-19.626-.41-38.973-1.22-58-.03-.493-.04-1-.07-1.493-1.67-37.893-4.91-74.547-9.62-109.773-.08-.467-.13-.92-.19-1.387-4.76-35.187-10.98-68.96-18.53-101.12-.1-.427-.21-.853-.31-1.267-7.59-32.12-16.54-62.64-26.7-91.36-.14-.373-.27-.747-.4-1.12-10.19-28.68-21.62-55.56-34.14-80.467-.16-.333-.32-.653-.5-.986-12.55-24.853-26.2-47.72-40.84-68.427-.19-.28-.39-.546-.58-.813-14.65-20.653-30.29-39.147-46.8-55.293-.23-.214-.43-.427-.65-.64-16.53-16.08-33.91-29.814-52.04-41.014-.23-.146-.48-.293-.72-.44-18.14-11.133-37.03-19.746-56.53-25.626-.26-.08-.51-.16-.78-.24-13.95-4.147-28.22-6.92-42.75-8.227l-.42-.04a216.544 216.544 0 0 1 42.69 8.227c.26.08.51.16.78.24 19.42 5.88 38.23 14.466 56.32 25.6.23.146.47.293.71.44 18.05 11.2 35.37 24.933 51.84 41 .21.213.43.426.65.639 16.43 16.134 32.02 34.627 46.61 55.267.19.28.39.547.58.814 14.58 20.706 28.19 43.573 40.69 68.426l.49.974c12.47 24.906 23.84 51.786 34.01 80.453.13.386.26.76.39 1.133 10.14 28.72 19.05 59.227 26.6 91.347.11.413.21.84.31 1.267 7.53 32.16 13.73 65.92 18.46 101.12.05.453.11.92.19 1.386 4.68 35.227 7.92 71.88 9.59 109.76.01.507.04 1 .05 1.494.81 19.04 1.23 38.373 1.23 58.013 0 19.493-.4 38.933-1.21 58.293-.02.507-.05 1.027-.06 1.534-1.65 38.84-4.87 77.32-9.56 115.2-.07.493-.13.986-.19 1.48-4.73 37.862-10.91 75.122-18.44 111.522-.1.48-.21.96-.29 1.44-7.57 36.37-16.47 71.89-26.6 106.29-.14.45-.27.91-.4 1.35-10.15 34.38-21.53 67.64-34.01 99.54-.16.42-.32.84-.49 1.26-12.5 31.86-26.11 62.36-40.69 91.24-.19.37-.38.76-.57 1.13-14.6 28.83-30.2 56.04-46.63 81.39-.22.33-.43.66-.65.98-16.47 25.3-33.79 48.71-51.85 70-.25.28-.48.56-.72.84-18.07 21.24-36.89 40.35-56.33 57.07-.25.23-.5.44-.77.65-19.44 16.68-39.52 30.96-60.09 42.62-.27.14-.53.3-.81.45-20.58 11.59-41.65 20.53-63.1 26.59Z"/><path d="M1032.69 1679.05c9.38-6.78 18.59-16.44 27.59-28.7.12-.16.23-.32.35-.5 8.99-12.33 17.76-27.29 26.26-44.61.12-.23.22-.47.34-.69 8.5-17.38 16.72-37.12 24.63-58.96.1-.28.2-.58.31-.86 7.89-21.9 15.46-45.9 22.66-71.74.09-.34.19-.68.28-1.02 7.19-25.89 14-53.64 20.39-82.96.09-.38.16-.77.25-1.14 6.38-29.38 12.31-60.32 17.77-92.6.08-.43.15-.86.23-1.3 5.45-32.3 10.42-65.96 14.86-100.66.06-.47.11-.92.17-1.38 4.44-34.74 8.32-70.56 11.62-107.18.05-.48.09-.96.14-1.44 3.28-36.66 5.99-74.12 8.05-112.149l.09-1.493a3275.31 3275.31 0 0 0 4.18-115.52c0-.507.02-1.027.03-1.534.34-19.386.53-38.84.53-58.333 0-19.64-.19-38.96-.54-57.96 0-.507-.02-1-.03-1.493-.72-37.84-2.14-74.387-4.18-109.454l-.09-1.373c-2.06-35.04-4.77-68.6-8.07-100.507-.05-.413-.09-.84-.14-1.253-3.29-31.867-7.18-62.067-11.62-90.453-.05-.374-.11-.734-.17-1.107-4.44-28.334-9.41-54.827-14.86-79.307-.08-.333-.15-.653-.22-.973-5.47-24.427-11.42-46.827-17.78-67.054a9.735 9.735 0 0 1-.25-.786c-6.39-20.16-13.2-38.12-20.39-53.707-.08-.2-.19-.413-.28-.613-7.2-15.52-14.77-28.667-22.66-39.253-.11-.147-.21-.28-.31-.427-7.9-10.52-16.13-18.48-24.61-23.707-.12-.066-.22-.146-.34-.213-7.29-4.413-14.77-6.813-22.42-7.107h-.34c7.57.267 14.98 2.68 22.2 7.094.12.066.22.133.34.2 8.41 5.226 16.54 13.186 24.36 23.706.1.147.2.28.31.413 7.82 10.6 15.3 23.734 22.43 39.254.09.213.19.413.28.613 7.11 15.587 13.86 33.547 20.18 53.707.07.253.16.52.23.787 6.32 20.213 12.2 42.626 17.6 67.053.08.32.15.64.22.96 5.39 24.48 10.33 50.973 14.72 79.307.06.373.11.733.17 1.106 4.38 28.374 8.24 58.587 11.51 90.454.04.413.08.826.13 1.253 3.25 31.906 5.93 65.467 7.98 100.493l.09 1.387c2.03 35.067 3.43 71.6 4.14 109.44.01.493.03 1 .03 1.493.35 19 .53 38.334.53 57.96 0 19.494-.18 38.96-.52 58.347-.01.507-.03 1.013-.03 1.52-.72 38.893-2.1 77.493-4.14 115.52-.02.507-.05 1-.08 1.507a3231.55 3231.55 0 0 1-7.97 112.132c-.05.48-.09.96-.13 1.44-3.27 36.64-7.13 72.45-11.51 107.2-.06.45-.12.91-.17 1.37-4.39 34.71-9.31 68.36-14.72 100.68-.07.43-.13.86-.2 1.28-5.42 32.28-11.3 63.24-17.6 92.6-.09.39-.18.78-.25 1.16-6.32 29.32-13.07 57.07-20.18 82.96-.09.34-.19.68-.28 1.02-7.13 25.85-14.63 49.85-22.43 71.74-.11.3-.21.59-.31.87-7.82 21.84-15.97 41.59-24.38 58.97-.1.23-.22.46-.32.68-8.43 17.34-17.1 32.3-26.01 44.64-.12.16-.24.32-.34.48-8.91 12.28-18.03 21.94-27.31 28.72Zm-.28 0c-4.12-6.9-8.17-16.69-12.14-29.09-.04-.16-.1-.32-.14-.48-3.96-12.47-7.82-27.55-11.56-44.99-.05-.22-.09-.45-.15-.68-3.73-17.5-7.35-37.36-10.827-59.3-.044-.28-.089-.58-.133-.87-3.476-22-6.804-46.11-9.971-72.04l-.132-1.03c-3.152-25.98-6.157-53.81-8.955-83.22-.045-.39-.074-.78-.118-1.16-2.798-29.46-5.42-60.48-7.821-92.84-.029-.43-.059-.86-.103-1.3a5708 5708 0 0 1-6.524-100.88c-.03-.45-.06-.9-.089-1.36a6711.744 6711.744 0 0 1-5.111-107.34c-.014-.5-.029-.98-.059-1.46-1.443-36.69-2.636-74.2-3.534-112.236l-.044-1.507a7569.639 7569.639 0 0 1-1.842-115.573c0-.507 0-1.013-.014-1.533-.148-19.387-.221-38.84-.221-58.347 0-19.627.073-38.96.235-57.947 0-.506 0-1 .015-1.493.309-37.827.928-74.347 1.841-109.4.015-.453.015-.92.03-1.373.913-35 2.106-68.52 3.549-100.387.015-.413.044-.84.059-1.253 1.458-31.814 3.167-61.974 5.111-90.294.029-.373.059-.746.074-1.106 1.958-28.28 4.153-54.707 6.539-79.12.044-.32.073-.64.103-.947 2.401-24.36 5.022-46.693 7.821-66.813.044-.267.073-.534.118-.8 2.798-20.067 5.802-37.934 8.954-53.427l.133-.6c3.166-15.427 6.495-28.467 9.956-38.96.059-.133.103-.267.147-.413 3.473-10.414 7.083-18.267 10.823-23.374.05-.066.11-.133.15-.2 2.62-2.466 6.51-5.813 10.13-6.813l-.34.013-10.38 6.814c-.04.066-.1.133-.15.2-3.83 5.106-7.54 12.96-11.087 23.373-.044.147-.103.28-.147.413-3.549 10.494-6.967 23.534-10.207 38.96-.044.2-.088.4-.132.614-3.241 15.48-6.304 33.346-9.176 53.426-.044.267-.088.52-.118.787-2.872 20.133-5.553 42.467-8.012 66.813-.03.32-.074.64-.103.96-2.46 24.414-4.699 50.84-6.702 79.107-.014.373-.044.747-.073 1.12-1.989 28.32-3.756 58.467-5.243 90.293-.015.414-.03.84-.059 1.254-1.473 31.866-2.696 65.386-3.638 100.386 0 .467-.015.92-.03 1.387-.928 35.04-1.561 71.56-1.885 109.387-.015.493-.015.986-.015 1.493-.162 19-.25 38.32-.25 57.947 0 19.506.088 38.96.25 58.346v1.534c.324 38.906.972 77.52 1.886 115.573l.044 1.507a7129.55 7129.55 0 0 0 3.623 112.239c.029.48.044.96.059 1.45 1.502 36.67 3.255 72.54 5.243 107.35.03.45.059.91.074 1.36 2.003 34.79 4.242 68.49 6.701 100.88.03.43.074.85.103 1.29 2.46 32.35 5.14 63.38 8.012 92.83.045.39.074.77.118 1.16 2.872 29.41 5.936 57.24 9.176 83.23l.133 1.02c3.24 25.94 6.657 50.04 10.206 72.04.059.3.103.59.147.87 3.562 21.95 7.262 41.8 11.092 59.29.06.23.1.47.16.7 3.83 17.42 7.78 32.5 11.83 44.97.06.16.12.33.16.49 4.05 12.39 8.2 22.18 12.43 29.08Z"/><path d="M1032.16 1679.07c-16.98-6.42-33.653-15.7-49.942-27.6-.207-.16-.427-.32-.634-.48-16.274-11.98-32.166-26.59-47.558-43.56-.191-.23-.397-.46-.603-.67-15.377-17.04-30.267-36.45-44.569-57.97-.191-.3-.382-.58-.574-.86-14.286-21.58-27.998-45.28-41.018-70.82-.177-.34-.339-.68-.516-1.02-13.005-25.6-25.347-53.06-36.894-82.13-.162-.37-.31-.76-.457-1.15-11.547-29.1-22.299-59.81-32.196-91.88l-.398-1.26c-9.868-32.11-18.867-65.55-26.893-100.08-.118-.46-.222-.91-.325-1.36-8.012-34.58-15.052-70.23-21.032-106.74-.088-.46-.162-.94-.235-1.42-5.965-36.52-10.855-73.88-14.596-111.816-.059-.507-.103-1-.147-1.493a1803.992 1803.992 0 0 1-7.571-115.36l-.044-1.52a1786.388 1786.388 0 0 1-.957-58.32c0-19.64.324-38.974.957-57.987.03-.493.044-1 .059-1.493 1.311-37.867 3.874-74.467 7.585-109.614.044-.466.103-.92.147-1.386 3.741-35.12 8.646-68.787 14.611-100.827.073-.413.162-.84.235-1.253 5.98-32 13.035-62.374 21.047-90.92l.31-1.12c8.041-28.52 17.04-55.214 26.923-79.907.118-.333.25-.653.383-.973 9.897-24.654 20.649-47.294 32.196-67.774.147-.266.295-.533.457-.8 11.547-20.413 23.874-38.653 36.894-54.533.162-.2.339-.413.501-.613 13.034-15.814 26.732-29.267 41.018-40.174.192-.146.383-.293.575-.426 14.301-10.84 29.177-19.134 44.553-24.707.206-.08.412-.147.619-.227 12.106-4.32 24.522-6.96 37.189-7.813l-.383.027c-12.711.866-25.171 3.506-37.322 7.826-.206.067-.412.147-.618.214-15.45 5.586-30.414 13.88-44.789 24.733-.192.133-.383.28-.575.427-14.36 10.906-28.131 24.36-41.224 40.186-.177.2-.354.414-.516.614-13.079 15.88-25.48 34.12-37.086 54.546-.162.267-.309.534-.457.8-11.605 20.48-22.416 43.134-32.372 67.774-.118.333-.251.653-.383.973-9.927 24.707-18.97 51.413-27.056 79.92l-.31 1.12c-8.056 28.56-15.14 58.933-21.164 90.933-.074.414-.162.84-.236 1.254-5.994 32.04-10.914 65.707-14.684 100.827-.044.466-.103.919-.147 1.386-3.741 35.16-6.319 71.76-7.63 109.614l-.044 1.493c-.648 19.026-.987 38.36-.987 57.986 0 19.507.325 38.947.973 58.32l.044 1.534a1793.202 1793.202 0 0 0 7.614 115.346c.045.494.089 1.001.148 1.494 3.755 37.929 8.675 75.289 14.669 111.809.074.48.147.95.236 1.43 6.009 36.49 13.093 72.16 21.149 106.72.104.45.207.91.31 1.36 8.086 34.53 17.129 67.97 27.056 100.07.132.42.25.85.383 1.28 9.956 32.05 20.767 62.76 32.373 91.86.147.39.294.76.456 1.15 11.606 29.07 24.007 56.52 37.086 82.12.177.33.339.67.516 1.01 13.093 25.55 26.879 49.23 41.239 70.82l.574.84c14.375 21.52 29.339 40.92 44.804 57.96.206.22.413.45.604.66 15.479 16.98 31.445 31.58 47.808 43.56.206.15.427.31.634.47 16.378 11.91 33.137 21.19 50.197 27.59.11.04.22.08.34.12-.12-.04-.23-.08-.33-.12Z"/><path d="M1031.93 1679.08c-27.99-5.35-55.486-13.6-82.336-24.51-.339-.14-.692-.29-1.046-.44-26.835-10.97-53.022-24.6-78.399-40.62-.339-.2-.662-.42-1.001-.63-25.362-16.09-49.915-34.57-73.495-55.21a62.68 62.68 0 0 0-.928-.82c-23.565-20.7-46.158-43.54-67.647-68.29-.28-.32-.56-.65-.839-.97-21.46-24.8-41.785-51.51-60.843-79.86a94.71 94.71 0 0 1-.751-1.12c-19.029-28.38-36.762-58.44-53.081-89.89-.221-.41-.427-.83-.648-1.24-16.275-31.49-31.106-64.37-44.362-98.43-.177-.44-.339-.89-.516-1.33a1075.833 1075.833 0 0 1-34.699-105.43c-.118-.46-.251-.94-.384-1.41a1102.478 1102.478 0 0 1-24.065-110.919c-.074-.493-.163-.987-.236-1.48a1099.185 1099.185 0 0 1-12.475-114.88l-.088-1.533a1078.349 1078.349 0 0 1-1.577-58.254c0-19.64.545-38.986 1.606-58.053.015-.493.044-.987.074-1.493 2.165-37.947 6.392-74.707 12.519-110.08.073-.467.162-.934.235-1.4 6.186-35.347 14.257-69.32 24.096-101.72a40.6 40.6 0 0 1 .383-1.28c9.868-32.36 21.488-63.161 34.7-92.214.177-.387.353-.76.515-1.146 13.256-29 28.102-56.254 44.377-81.574.221-.333.427-.666.648-.986 16.304-25.267 34.052-48.574 53.066-69.76l.751-.84c19.059-21.12 39.384-40.12 60.828-56.8.295-.227.575-.441.855-.654 21.474-16.627 44.067-30.92 67.632-42.706.309-.16.619-.32.928-.467 23.58-11.733 48.117-20.947 73.465-27.467.339-.08.677-.173 1.016-.253a364.634 364.634 0 0 1 41.917-8.08l-.53.067a368.45 368.45 0 0 0-41.814 8.066 26.92 26.92 0 0 1-1.016.254c-25.406 6.533-50.018 15.76-73.657 27.493-.309.147-.618.307-.927.467-23.625 11.8-46.277 26.093-67.81 42.72-.28.226-.574.44-.854.666-21.504 16.68-41.888 35.68-60.99 56.827a43.88 43.88 0 0 0-.751.827c-19.059 21.186-36.851 44.52-53.214 69.773-.206.333-.427.667-.633 1-16.319 25.32-31.209 52.573-44.494 81.587-.177.386-.354.76-.516 1.146-13.255 29.054-24.906 59.854-34.803 92.227-.133.427-.25.853-.383 1.28-9.853 32.4-17.954 66.387-24.154 101.733-.074.454-.162.92-.236 1.387-6.142 35.387-10.384 72.147-12.549 110.093l-.088 1.494a1045.153 1045.153 0 0 0-1.591 58.04c0 19.506.531 38.933 1.576 58.266l.089 1.52a1094.66 1094.66 0 0 0 12.504 114.88c.074.494.162.987.25 1.494a1097.76 1097.76 0 0 0 24.111 110.892c.132.48.265.95.397 1.43 9.898 36.12 21.533 71.34 34.774 105.41.177.44.353.89.53 1.33 13.285 34.04 28.161 66.92 44.48 98.4.206.43.427.84.648 1.26 16.348 31.44 34.14 61.48 53.213 89.88.251.37.501.73.752 1.1 19.102 28.35 39.486 55.04 60.99 79.84.294.32.574.64.854.98 21.533 24.73 44.2 47.57 67.824 68.26.309.27.618.55.928.82 23.653 20.62 48.265 39.1 73.686 55.18.338.22.663.43 1.001.64 25.451 16.02 51.697 29.63 78.605 40.6.354.14.707.28 1.061.43 26.908 10.89 54.482 19.13 82.542 24.48Z"/><path d="M1031.75 1679.11c-36.543-3.86-72.45-10.64-107.518-20.11-.457-.12-.914-.25-1.37-.37-35.054-9.55-69.253-21.78-102.392-36.44l-1.311-.59c-33.109-14.73-65.172-31.91-95.984-51.28-.398-.27-.81-.52-1.208-.77-30.767-19.44-60.283-41.08-88.34-64.68-.369-.31-.737-.62-1.105-.92-28.013-23.66-54.569-49.27-79.459-76.6l-.973-1.08a867.596 867.596 0 0 1-69.326-87.06c-.28-.41-.56-.81-.839-1.22a878.317 878.317 0 0 1-57.942-96.04c-.221-.44-.456-.88-.677-1.32a871.648 871.648 0 0 1-45.305-103.56c-.177-.47-.338-.94-.5-1.4-12.829-35.63-23.374-72.26-31.431-109.63l-.309-1.48a836.36 836.36 0 0 1-16.304-114.213c-.03-.506-.074-1.013-.103-1.52a820.667 820.667 0 0 1-2.062-58.173c0-19.64.707-39.013 2.091-58.133.029-.494.059-1 .103-1.494 2.828-38.066 8.336-75.053 16.334-110.76.118-.466.221-.933.324-1.4 8.071-35.68 18.617-70.08 31.46-103.013.162-.44.324-.867.5-1.293 12.888-32.907 28.073-64.32 45.319-94.08.221-.387.457-.774.678-1.174 17.32-29.706 36.703-57.76 57.956-83.933l.84-1.04c21.297-26.12 44.479-50.387 69.311-72.587.324-.293.648-.586.987-.88a620.365 620.365 0 0 1 79.445-60.053c.353-.227.721-.467 1.09-.693a609.27 609.27 0 0 1 88.325-46.32c.413-.174.811-.347 1.223-.52a610.527 610.527 0 0 1 94.173-30.96l-1.031.253a612.184 612.184 0 0 0-93.599 30.813c-.397.174-.81.347-1.207.52-30.812 13.054-60.357 28.574-88.459 46.347-.368.227-.736.467-1.104.707-28.043 17.826-54.628 37.92-79.548 60.08-.324.293-.663.573-.987.866-24.876 22.214-48.073 46.48-69.415 72.614l-.839 1.04c-21.283 26.186-40.695 54.24-58.03 83.96-.235.386-.457.773-.678 1.173-17.276 29.76-32.475 61.187-45.392 94.08-.162.44-.339.867-.501 1.293-12.858 32.947-23.433 67.347-31.504 103.027-.103.467-.206.933-.324 1.413-8.012 35.707-13.535 72.694-16.363 110.76-.029.494-.074 1-.103 1.494a804.295 804.295 0 0 0-2.092 58.133c0 19.493.693 38.893 2.062 58.173.03.507.074 1.014.103 1.52a834.074 834.074 0 0 0 16.334 114.213c.103.49.206.97.309 1.47 8.072 37.37 18.617 74 31.475 109.61.162.47.339.93.501 1.4 12.902 35.6 28.102 70.2 45.363 103.56.236.44.457.88.692 1.31a876.685 876.685 0 0 0 58.855 97.25 871.321 871.321 0 0 0 69.429 87.03l.972 1.08c24.921 27.32 51.52 52.93 79.578 76.57.368.31.736.61 1.104.93 28.087 23.59 57.647 45.22 88.473 64.64.398.26.81.51 1.208.76 30.856 19.38 62.964 36.55 96.117 51.27.442.19.884.39 1.311.57 33.198 14.67 67.441 26.88 102.539 36.42.456.12.913.24 1.384.37 35.113 9.45 71.065 16.23 107.666 20.07Z"/><path d="M1031.65 1679.15a885.024 885.024 0 0 1-123.707-14.7c-.53-.1-1.06-.21-1.591-.3a881.562 881.562 0 0 1-117.797-31.3c-.501-.16-1.001-.33-1.502-.5a884.507 884.507 0 0 1-110.433-46.46c-.457-.24-.928-.48-1.385-.7-35.407-17.9-69.37-38.04-101.64-60.23-.427-.29-.854-.59-1.282-.88a867.47 867.47 0 0 1-91.404-72.6c-.383-.35-.751-.68-1.134-1.03-28.588-26.13-55.246-54.06-79.754-83.57-.324-.39-.648-.77-.972-1.17-24.449-29.55-46.748-60.67-66.66-93.12-.251-.43-.516-.86-.781-1.28-19.839-32.51-37.292-66.34-52.123-101.3-.192-.45-.383-.92-.575-1.37-14.758-34.99-26.894-71.07-36.158-108.04-.118-.49-.25-.97-.368-1.45a720.811 720.811 0 0 1-18.749-113.402c-.045-.507-.074-1.014-.118-1.52a709.84 709.84 0 0 1-2.372-58.067c0-19.64.811-39.053 2.401-58.24.044-.507.089-1 .118-1.507 3.255-38.2 9.603-75.466 18.808-111.573.118-.48.236-.947.368-1.427a680.22 680.22 0 0 1 36.188-104.586l.574-1.32a691.743 691.743 0 0 1 52.153-96.361c.251-.4.516-.8.781-1.2 19.913-30.586 42.211-59.613 66.675-86.866.309-.36.633-.707.957-1.067 24.508-27.2 51.167-52.64 79.754-76.08.369-.32.752-.626 1.12-.933 28.632-23.4 59.178-44.814 91.404-64.054.427-.253.84-.506 1.267-.746a790.31 790.31 0 0 1 21.474-12.307l-3.403 1.88a761.66 761.66 0 0 0-18.366 10.587c-.427.24-.854.493-1.281.747-32.24 19.253-62.802 40.68-91.449 64.093-.382.307-.751.613-1.134.92-28.602 23.467-55.275 48.907-79.798 76.107l-.972 1.079c-24.464 27.254-46.792 56.281-66.719 86.881-.251.4-.516.8-.781 1.2-19.854 30.64-37.321 62.826-52.168 96.373-.206.44-.397.88-.589 1.32a682.387 682.387 0 0 0-36.217 104.613c-.118.467-.236.947-.353 1.427-9.22 36.107-15.568 73.373-18.823 111.573-.044.507-.074 1.014-.118 1.507a704.473 704.473 0 0 0-2.401 58.24c0 19.493.796 38.867 2.371 58.067.03.506.074 1.013.118 1.52a718.701 718.701 0 0 0 18.764 113.382c.118.5.236.98.369 1.46 9.264 36.97 21.4 73.06 36.172 108.04.192.45.383.9.589 1.37 14.832 34.95 32.3 68.77 52.153 101.27.266.42.516.85.781 1.28 19.928 32.45 42.226 63.57 66.705 93.1.324.39.648.79.972 1.18 24.523 29.49 51.196 57.41 79.798 83.53.383.35.751.69 1.134 1.03 28.647 26.08 59.223 50.34 91.478 72.57.412.29.839.59 1.266.88a881.324 881.324 0 0 0 101.714 60.19c.457.24.928.46 1.385.7a885.338 885.338 0 0 0 110.507 46.42c.501.17 1.001.34 1.502.52a885.444 885.444 0 0 0 117.871 31.24l1.591.3a884.745 884.745 0 0 0 123.795 14.66Z"/><path d="M1032.5 158.002c-466.535 0-846.099 343.6-846.099 765.947 0 422.361 379.564 765.971 846.099 765.971 466.54 0 846.1-343.61 846.1-765.971 0-422.347-379.56-765.947-846.1-765.947Zm0 1534.078c-114.542 0-225.668-20.3-330.268-60.36-101.052-38.68-191.793-94.06-269.706-164.61-77.928-70.55-139.109-152.69-181.851-244.16C206.431 1128.24 184 1027.66 184 923.949c0-103.694 22.431-204.28 66.675-298.987 42.742-91.467 103.923-173.613 181.851-244.16 77.913-70.546 168.654-125.92 269.706-164.613 104.6-40.053 215.726-60.36 330.268-60.36 114.54 0 225.67 20.307 330.27 60.36 101.05 38.693 191.79 94.067 269.7 164.613 77.93 70.547 139.11 152.693 181.85 244.16 44.25 94.707 66.68 195.293 66.68 298.987 0 103.711-22.43 204.291-66.68 299.001-42.74 91.47-103.92 173.61-181.85 244.16-77.91 70.55-168.65 125.93-269.7 164.61-104.6 40.06-215.73 60.36-330.27 60.36Z"/></g><defs><filter id="a" width="1844" height="944" x="113" y="135" color-interpolation-filters="sRGB" filterUnits="userSpaceOnUse"><feFlood flood-opacity="0" result="BackgroundImageFix"/><feBlend in="SourceGraphic" in2="BackgroundImageFix" result="shape"/><feGaussianBlur result="effect1_foregroundBlur_111146_1136" stdDeviation="11"/></filter><filter id="b" width="1936" height="1036" x="67" y="89" color-interpolation-filters="sRGB" filterUnits="userSpaceOnUse"><feFlood flood-opacity="0" result="BackgroundImageFix"/><feBlend in="SourceGraphic" in2="BackgroundImageFix" result="shape"/><feGaussianBlur result="effect1_foregroundBlur_111146_1136" stdDeviation="34"/></filter><filter id="c" width="1936" height="1036" x="67" y="89" color-interpolation-filters="sRGB" filterUnits="userSpaceOnUse"><feFlood flood-opacity="0" result="BackgroundImageFix"/><feBlend in="SourceGraphic" in2="BackgroundImageFix" result="shape"/><feGaussianBlur result="effect1_foregroundBlur_111146_1136" stdDeviation="34"/></filter><filter id="d" width="1936" height="1036" x="67" y="89" color-interpolation-filters="sRGB" filterUnits="userSpaceOnUse"><feFlood flood-opacity="0" result="BackgroundImageFix"/><feBlend in="SourceGraphic" in2="BackgroundImageFix" result="shape"/><feGaussianBlur result="effect1_foregroundBlur_111146_1136" stdDeviation="34"/></filter><filter id="e" width="1800" height="904" x="135" y="157" color-interpolation-filters="sRGB" filterUnits="userSpaceOnUse"><feFlood flood-opacity="0" result="BackgroundImageFix"/><feBlend in="SourceGraphic" in2="BackgroundImageFix" result="shape"/><feColorMatrix in="SourceAlpha" result="hardAlpha" values="0 0 0 0 0 0 0 0 0 0 0 0 0 0 0 0 0 0 127 0"/><feOffset dy="4"/><feGaussianBlur stdDeviation="8"/><feComposite in2="hardAlpha" k2="-1" k3="1" operator="arithmetic"/><feColorMatrix values="0 0 0 0 1 0 0 0 0 1 0 0 0 0 1 0 0 0 0.25 0"/><feBlend in2="shape" result="effect1_innerShadow_111146_1136"/></filter><filter id="f" width="369.453" height="80.303" x="833.355" y="135" color-interpolation-filters="sRGB" filterUnits="userSpaceOnUse"><feFlood flood-opacity="0" result="BackgroundImageFix"/><feBlend in="SourceGraphic" in2="BackgroundImageFix" result="shape"/><feGaussianBlur result="effect1_foregroundBlur_111146_1136" stdDeviation="11"/></filter><filter id="g" width="763.074" height="216.834" x="634.732" y="89" color-interpolation-filters="sRGB" filterUnits="userSpaceOnUse"><feFlood flood-opacity="0" result="BackgroundImageFix"/><feBlend in="SourceGraphic" in2="BackgroundImageFix" result="shape"/><feGaussianBlur result="effect1_foregroundBlur_111146_1136" stdDeviation="34"/></filter><filter id="h" width="1082.49" height="286.305" x="493.83" y="89" color-interpolation-filters="sRGB" filterUnits="userSpaceOnUse"><feFlood flood-opacity="0" result="BackgroundImageFix"/><feBlend in="SourceGraphic" in2="BackgroundImageFix" result="shape"/><feGaussianBlur result="effect1_foregroundBlur_111146_1136" stdDeviation="34"/></filter><filter id="i" width="1077.86" height="285.029" x="496.35" y="89" color-interpolation-filters="sRGB" filterUnits="userSpaceOnUse"><feFlood flood-opacity="0" result="BackgroundImageFix"/><feBlend in="SourceGraphic" in2="BackgroundImageFix" result="shape"/><feGaussianBlur result="effect1_foregroundBlur_111146_1136" stdDeviation="34"/></filter><linearGradient id="j" x1="1032.5" x2="1032.5" y1="156" y2="1141" gradientUnits="userSpaceOnUse"><stop stop-color="#737373"/><stop offset="1" stop-color="#D9D9D9" stop-opacity="0"/></linearGradient></defs></svg>